<svg width="32" height="32" viewBox="0 0 32 32" fill="none" xmlns="http://www.w3.org/2000/svg">
<path d="M32 16C32 24.8366 24.8366 32 16 32C7.16344 32 0 24.8366 0 16C0 7.16344 7.16344 0 16 0C24.8366 0 32 7.16344 32 16ZM3.2 16C3.2 23.0692 8.93076 28.8 16 28.8C23.0692 28.8 28.8 23.0692 28.8 16C28.8 8.93076 23.0692 3.2 16 3.2C8.93076 3.2 3.2 8.93076 3.2 16Z" fill="black" fill-opacity="0.08"/>
<g filter="url(#filter0_i_1_1784)">
<path d="M32 16C32 24.8366 24.8366 32 16 32C7.16344 32 0 24.8366 0 16C0 7.16344 7.16344 0 16 0C24.8366 0 32 7.16344 32 16ZM4.16 16C4.16 22.5391 9.46095 27.84 16 27.84C22.5391 27.84 27.84 22.5391 27.84 16C27.84 9.46095 22.5391 4.16 16 4.16C9.46095 4.16 4.16 9.46095 4.16 16Z" fill="#1A932E"/>
</g>
<path d="M7.04595 13.384V12.7H7.78395V19H7.02795V14.482C6.93795 14.563 6.79395 14.599 6.59595 14.599H5.57895V13.924H6.60495C6.90195 13.924 7.04595 13.699 7.04595 13.384ZM8.61518 15.994V15.706C8.61518 13.915 9.58718 12.646 11.0092 12.646C12.4222 12.646 13.3942 13.915 13.3942 15.706V15.994C13.3942 17.875 12.4222 19.054 11.0092 19.054C9.58718 19.054 8.61518 17.875 8.61518 15.994ZM12.6292 15.967V15.733C12.6292 14.239 11.9812 13.339 11.0092 13.339C10.0282 13.339 9.38018 14.239 9.38018 15.733V15.967C9.38018 17.461 10.0282 18.361 11.0092 18.361C11.9812 18.361 12.6292 17.461 12.6292 15.967ZM13.9899 15.994V15.706C13.9899 13.915 14.9619 12.646 16.3839 12.646C17.7969 12.646 18.7689 13.915 18.7689 15.706V15.994C18.7689 17.875 17.7969 19.054 16.3839 19.054C14.9619 19.054 13.9899 17.875 13.9899 15.994ZM18.0039 15.967V15.733C18.0039 14.239 17.3559 13.339 16.3839 13.339C15.4029 13.339 14.7549 14.239 14.7549 15.733V15.967C14.7549 17.461 15.4029 18.361 16.3839 18.361C17.3559 18.361 18.0039 17.461 18.0039 15.967ZM20.7326 12.484C21.1766 12.484 21.5126 12.661 21.7406 13.015C21.9686 13.363 22.0826 13.855 22.0826 14.491C22.0826 15.127 21.9716 15.625 21.7496 15.985C21.5336 16.339 21.1946 16.516 20.7326 16.516C20.4506 16.516 20.2106 16.435 20.0126 16.273C19.8146 16.111 19.6646 15.88 19.5626 15.58C19.4666 15.274 19.4186 14.911 19.4186 14.491C19.4186 13.855 19.5236 13.363 19.7336 13.015C19.9436 12.661 20.2766 12.484 20.7326 12.484ZM20.7326 13.042C20.5046 13.042 20.3366 13.165 20.2286 13.411C20.1266 13.651 20.0756 14.011 20.0756 14.491C20.0756 14.971 20.1266 15.334 20.2286 15.58C20.3366 15.826 20.5046 15.949 20.7326 15.949C20.9666 15.949 21.1406 15.829 21.2546 15.589C21.3686 15.343 21.4256 14.977 21.4256 14.491C21.4256 14.011 21.3686 13.651 21.2546 13.411C21.1406 13.165 20.9666 13.042 20.7326 13.042ZM24.8456 12.574L21.2816 19H20.5886L24.1526 12.574H24.8456ZM24.6656 15.058C24.9596 15.058 25.2056 15.139 25.4036 15.301C25.6016 15.457 25.7516 15.685 25.8536 15.985C25.9616 16.279 26.0156 16.639 26.0156 17.065C26.0156 17.701 25.9046 18.199 25.6826 18.559C25.4666 18.913 25.1276 19.09 24.6656 19.09C24.3836 19.09 24.1436 19.009 23.9456 18.847C23.7476 18.685 23.5976 18.454 23.4956 18.154C23.3996 17.848 23.3516 17.485 23.3516 17.065C23.3516 16.429 23.4566 15.937 23.6666 15.589C23.8766 15.235 24.2096 15.058 24.6656 15.058ZM24.6656 15.625C24.4376 15.625 24.2696 15.745 24.1616 15.985C24.0596 16.225 24.0086 16.585 24.0086 17.065C24.0086 17.551 24.0596 17.917 24.1616 18.163C24.2696 18.403 24.4376 18.523 24.6656 18.523C24.8996 18.523 25.0736 18.403 25.1876 18.163C25.3016 17.923 25.3586 17.557 25.3586 17.065C25.3586 16.585 25.3016 16.225 25.1876 15.985C25.0736 15.745 24.8996 15.625 24.6656 15.625Z" fill="#060606"/>
<path d="M7.04595 12.7V12.6H6.94595V12.7H7.04595ZM7.78395 12.7H7.88395V12.6H7.78395V12.7ZM7.78395 19V19.1H7.88395V19H7.78395ZM7.02795 19H6.92795V19.1H7.02795V19ZM7.02795 14.482H7.12795V14.2575L6.96105 14.4077L7.02795 14.482ZM5.57895 14.599H5.47895V14.699H5.57895V14.599ZM5.57895 13.924V13.824H5.47895V13.924H5.57895ZM7.14595 13.384V12.7H6.94595V13.384H7.14595ZM7.04595 12.8H7.78395V12.6H7.04595V12.8ZM7.68395 12.7V19H7.88395V12.7H7.68395ZM7.78395 18.9H7.02795V19.1H7.78395V18.9ZM7.12795 19V14.482H6.92795V19H7.12795ZM6.96105 14.4077C6.89915 14.4634 6.78659 14.499 6.59595 14.499V14.699C6.80131 14.699 6.97675 14.6626 7.09485 14.5563L6.96105 14.4077ZM6.59595 14.499H5.57895V14.699H6.59595V14.499ZM5.67895 14.599V13.924H5.47895V14.599H5.67895ZM5.57895 14.024H6.60495V13.824H5.57895V14.024ZM6.60495 14.024C6.78172 14.024 6.92253 13.9554 7.01626 13.8329C7.1071 13.7141 7.14595 13.555 7.14595 13.384H6.94595C6.94595 13.528 6.9128 13.6389 6.85739 13.7114C6.80487 13.7801 6.72518 13.824 6.60495 13.824V14.024ZM8.71518 15.994V15.706H8.51518V15.994H8.71518ZM8.71518 15.706C8.71518 14.8277 8.95356 14.0858 9.35788 13.5658C9.76084 13.0475 10.3309 12.746 11.0092 12.746V12.546C10.2655 12.546 9.63853 12.879 9.19999 13.443C8.76281 14.0052 8.51518 14.7933 8.51518 15.706H8.71518ZM11.0092 12.746C11.6828 12.746 12.2506 13.0473 12.6525 13.5657C13.0558 14.0857 13.2942 14.8277 13.2942 15.706H13.4942C13.4942 14.7933 13.2466 14.0053 12.8106 13.4431C12.3733 12.8792 11.7486 12.546 11.0092 12.546V12.746ZM13.2942 15.706V15.994H13.4942V15.706H13.2942ZM13.2942 15.994C13.2942 16.9182 13.0554 17.6594 12.6532 18.1673C12.2526 18.6731 11.6852 18.954 11.0092 18.954V19.154C11.7461 19.154 12.3713 18.8454 12.81 18.2915C13.247 17.7396 13.4942 16.9508 13.4942 15.994H13.2942ZM11.0092 18.954C10.3284 18.954 9.75886 18.673 9.35725 18.1672C8.95401 17.6594 8.71518 16.9182 8.71518 15.994H8.51518C8.51518 16.9508 8.76236 17.7396 9.20062 18.2916C9.6405 18.8455 10.2679 19.154 11.0092 19.154V18.954ZM12.7292 15.967V15.733H12.5292V15.967H12.7292ZM12.7292 15.733C12.7292 14.9731 12.5646 14.3527 12.266 13.919C11.9652 13.4821 11.5304 13.239 11.0092 13.239V13.439C11.46 13.439 11.8351 13.6459 12.1013 14.0325C12.3698 14.4223 12.5292 14.9989 12.5292 15.733H12.7292ZM11.0092 13.239C10.4838 13.239 10.0467 13.4819 9.74455 13.9189C9.44475 14.3526 9.28018 14.9732 9.28018 15.733H9.48018C9.48018 14.9988 9.63962 14.4224 9.90907 14.0326C10.1762 13.6461 10.5536 13.439 11.0092 13.439V13.239ZM9.28018 15.733V15.967H9.48018V15.733H9.28018ZM9.28018 15.967C9.28018 16.7268 9.44475 17.3474 9.74455 17.7811C10.0467 18.2181 10.4838 18.461 11.0092 18.461V18.261C10.5536 18.261 10.1762 18.0539 9.90907 17.6674C9.63962 17.2776 9.48018 16.7012 9.48018 15.967H9.28018ZM11.0092 18.461C11.5304 18.461 11.9652 18.2179 12.266 17.781C12.5646 17.3473 12.7292 16.7269 12.7292 15.967H12.5292C12.5292 16.7011 12.3698 17.2777 12.1013 17.6675C11.8351 18.0541 11.46 18.261 11.0092 18.261V18.461ZM14.0899 15.994V15.706H13.8899V15.994H14.0899ZM14.0899 15.706C14.0899 14.8277 14.3282 14.0858 14.7326 13.5658C15.1355 13.0475 15.7056 12.746 16.3839 12.746V12.546C15.6402 12.546 15.0132 12.879 14.5747 13.443C14.1375 14.0052 13.8899 14.7933 13.8899 15.706H14.0899ZM16.3839 12.746C17.0575 12.746 17.6253 13.0473 18.0272 13.5657C18.4305 14.0857 18.6689 14.8277 18.6689 15.706H18.8689C18.8689 14.7933 18.6212 14.0053 18.1853 13.4431C17.748 12.8792 17.1233 12.546 16.3839 12.546V12.746ZM18.6689 15.706V15.994H18.8689V15.706H18.6689ZM18.6689 15.994C18.6689 16.9182 18.43 17.6594 18.0279 18.1673C17.6273 18.6731 17.0599 18.954 16.3839 18.954V19.154C17.1208 19.154 17.746 18.8454 18.1846 18.2915C18.6217 17.7396 18.8689 16.9508 18.8689 15.994H18.6689ZM16.3839 18.954C15.7031 18.954 15.1336 18.673 14.7319 18.1672C14.3287 17.6594 14.0899 16.9182 14.0899 15.994H13.8899C13.8899 16.9508 14.137 17.7396 14.5753 18.2916C15.0152 18.8455 15.6426 19.154 16.3839 19.154V18.954ZM18.1039 15.967V15.733H17.9039V15.967H18.1039ZM18.1039 15.733C18.1039 14.9731 17.9393 14.3527 17.6407 13.919C17.3399 13.4821 16.9051 13.239 16.3839 13.239V13.439C16.8347 13.439 17.2098 13.6459 17.476 14.0325C17.7444 14.4223 17.9039 14.9989 17.9039 15.733H18.1039ZM16.3839 13.239C15.8585 13.239 15.4213 13.4819 15.1192 13.9189C14.8194 14.3526 14.6549 14.9732 14.6549 15.733H14.8549C14.8549 14.9988 15.0143 14.4224 15.2838 14.0326C15.5509 13.6461 15.9283 13.439 16.3839 13.439V13.239ZM14.6549 15.733V15.967H14.8549V15.733H14.6549ZM14.6549 15.967C14.6549 16.7268 14.8194 17.3474 15.1192 17.7811C15.4213 18.2181 15.8585 18.461 16.3839 18.461V18.261C15.9283 18.261 15.5509 18.0539 15.2838 17.6674C15.0143 17.2776 14.8549 16.7012 14.8549 15.967H14.6549ZM16.3839 18.461C16.9051 18.461 17.3399 18.2179 17.6407 17.781C17.9393 17.3473 18.1039 16.7269 18.1039 15.967H17.9039C17.9039 16.7011 17.7444 17.2777 17.476 17.6675C17.2098 18.0541 16.8347 18.261 16.3839 18.261V18.461ZM21.7406 13.015L21.6565 13.0691L21.6569 13.0698L21.7406 13.015ZM21.7496 15.985L21.6644 15.9325L21.6642 15.9329L21.7496 15.985ZM20.0126 16.273L19.9492 16.3504L19.9492 16.3504L20.0126 16.273ZM19.5626 15.58L19.4671 15.6099L19.4679 15.6122L19.5626 15.58ZM19.7336 13.015L19.8192 13.0667L19.8196 13.066L19.7336 13.015ZM20.2286 13.411L20.137 13.3708L20.1365 13.3719L20.2286 13.411ZM20.2286 15.58L20.1362 15.6183L20.137 15.6202L20.2286 15.58ZM21.2546 15.589L21.3449 15.6319L21.3453 15.631L21.2546 15.589ZM21.2546 13.411L21.1638 13.453L21.1642 13.4539L21.2546 13.411ZM24.8456 12.574L24.933 12.6225L25.0154 12.474H24.8456V12.574ZM21.2816 19V19.1H21.3404L21.369 19.0485L21.2816 19ZM20.5886 19L20.5011 18.9515L20.4187 19.1H20.5886V19ZM24.1526 12.574V12.474H24.0937L24.0651 12.5255L24.1526 12.574ZM25.4036 15.301L25.3402 15.3784L25.3417 15.3795L25.4036 15.301ZM25.8536 15.985L25.7589 16.0172L25.7597 16.0195L25.8536 15.985ZM25.6826 18.559L25.5974 18.5065L25.5972 18.5069L25.6826 18.559ZM23.9456 18.847L23.8822 18.9244L23.9456 18.847ZM23.4956 18.154L23.4001 18.1839L23.4009 18.1862L23.4956 18.154ZM23.6666 15.589L23.7522 15.6407L23.7526 15.64L23.6666 15.589ZM24.1616 15.985L24.0703 15.944L24.0695 15.9459L24.1616 15.985ZM24.1616 18.163L24.0691 18.2013L24.0704 18.204L24.1616 18.163ZM25.1876 18.163L25.2779 18.2059L25.2779 18.2059L25.1876 18.163ZM25.1876 15.985L25.2779 15.9421L25.2779 15.9421L25.1876 15.985ZM20.7326 12.584C21.1448 12.584 21.4481 12.7455 21.6565 13.0691L21.8246 12.9609C21.577 12.5764 21.2083 12.384 20.7326 12.384V12.584ZM21.6569 13.0698C21.87 13.395 21.9826 13.8649 21.9826 14.491H22.1826C22.1826 13.8451 22.0671 13.331 21.8242 12.9602L21.6569 13.0698ZM21.9826 14.491C21.9826 15.1171 21.873 15.5943 21.6644 15.9325L21.8347 16.0375C22.0701 15.6557 22.1826 15.1369 22.1826 14.491H21.9826ZM21.6642 15.9329C21.4687 16.2533 21.1645 16.416 20.7326 16.416V16.616C21.2247 16.616 21.5984 16.4247 21.8349 16.0371L21.6642 15.9329ZM20.7326 16.416C20.4711 16.416 20.2542 16.3415 20.0759 16.1956L19.9492 16.3504C20.167 16.5285 20.43 16.616 20.7326 16.616V16.416ZM20.0759 16.1956C19.8955 16.048 19.7547 15.8343 19.6572 15.5478L19.4679 15.6122C19.5745 15.9257 19.7337 16.174 19.9492 16.3504L20.0759 16.1956ZM19.658 15.5501C19.5658 15.2562 19.5186 14.9038 19.5186 14.491H19.3186C19.3186 14.9182 19.3673 15.2918 19.4671 15.6099L19.658 15.5501ZM19.5186 14.491C19.5186 13.8638 19.6225 13.3926 19.8192 13.0667L19.6479 12.9633C19.4246 13.3334 19.3186 13.8462 19.3186 14.491H19.5186ZM19.8196 13.066C20.0093 12.7461 20.3073 12.584 20.7326 12.584V12.384C20.2458 12.384 19.8778 12.5759 19.6476 12.964L19.8196 13.066ZM20.7326 12.942C20.5994 12.942 20.4793 12.9783 20.3765 13.0536C20.2747 13.1281 20.1961 13.2363 20.137 13.3708L20.3201 13.4512C20.3691 13.3397 20.4284 13.2634 20.4946 13.2149C20.5599 13.1672 20.6377 13.142 20.7326 13.142V12.942ZM20.1365 13.3719C20.0265 13.6307 19.9756 14.007 19.9756 14.491H20.1756C20.1756 14.015 20.2266 13.6713 20.3206 13.4501L20.1365 13.3719ZM19.9756 14.491C19.9756 14.9753 20.0266 15.354 20.1362 15.6183L20.3209 15.5417C20.2265 15.314 20.1756 14.9667 20.1756 14.491H19.9756ZM20.137 15.6202C20.1961 15.7547 20.2747 15.8629 20.3765 15.9374C20.4793 16.0127 20.5994 16.049 20.7326 16.049V15.849C20.6377 15.849 20.5599 15.8238 20.4946 15.7761C20.4284 15.7276 20.3691 15.6513 20.3201 15.5398L20.137 15.6202ZM20.7326 16.049C20.8676 16.049 20.9899 16.0141 21.0953 15.9413C21.2001 15.8691 21.2823 15.7637 21.3449 15.6319L21.1642 15.5461C21.1129 15.6543 21.0511 15.7289 20.9818 15.7767C20.9133 15.8239 20.8315 15.849 20.7326 15.849V16.049ZM21.3453 15.631C21.4685 15.3652 21.5256 14.9818 21.5256 14.491H21.3256C21.3256 14.9722 21.2686 15.3208 21.1638 15.547L21.3453 15.631ZM21.5256 14.491C21.5256 14.0063 21.4685 13.6283 21.3449 13.3681L21.1642 13.4539C21.2686 13.6737 21.3256 14.0157 21.3256 14.491H21.5256ZM21.3453 13.369C21.2829 13.2343 21.2009 13.1266 21.0963 13.0526C20.9907 12.978 20.8681 12.942 20.7326 12.942V13.142C20.831 13.142 20.9124 13.1675 20.9808 13.2159C21.0502 13.2649 21.1122 13.3417 21.1638 13.453L21.3453 13.369ZM24.7581 12.5255L21.1941 18.9515L21.369 19.0485L24.933 12.6225L24.7581 12.5255ZM21.2816 18.9H20.5886V19.1H21.2816V18.9ZM20.676 19.0485L24.24 12.6225L24.0651 12.5255L20.5011 18.9515L20.676 19.0485ZM24.1526 12.674H24.8456V12.474H24.1526V12.674ZM24.6656 15.158C24.9401 15.158 25.1627 15.2332 25.3402 15.3784L25.4669 15.2236C25.2484 15.0448 24.979 14.958 24.6656 14.958V15.158ZM25.3417 15.3795C25.521 15.5209 25.6615 15.7308 25.7589 16.0172L25.9482 15.9528C25.8416 15.6392 25.6821 15.3931 25.4654 15.2225L25.3417 15.3795ZM25.7597 16.0195C25.8625 16.2993 25.9156 16.6468 25.9156 17.065H26.1156C26.1156 16.6312 26.0607 16.2587 25.9474 15.9505L25.7597 16.0195ZM25.9156 17.065C25.9156 17.6911 25.806 18.1683 25.5974 18.5065L25.7677 18.6115C26.0031 18.2297 26.1156 17.7109 26.1156 17.065H25.9156ZM25.5972 18.5069C25.4017 18.8273 25.0975 18.99 24.6656 18.99V19.19C25.1577 19.19 25.5314 18.9987 25.7679 18.6111L25.5972 18.5069ZM24.6656 18.99C24.4041 18.99 24.1872 18.9155 24.0089 18.7696L23.8822 18.9244C24.1 19.1025 24.363 19.19 24.6656 19.19V18.99ZM24.0089 18.7696C23.8285 18.622 23.6877 18.4083 23.5902 18.1218L23.4009 18.1862C23.5075 18.4997 23.6667 18.748 23.8822 18.9244L24.0089 18.7696ZM23.591 18.1241C23.4988 17.8302 23.4516 17.4778 23.4516 17.065H23.2516C23.2516 17.4922 23.3003 17.8658 23.4001 18.1839L23.591 18.1241ZM23.4516 17.065C23.4516 16.4378 23.5555 15.9666 23.7522 15.6407L23.5809 15.5373C23.3576 15.9074 23.2516 16.4202 23.2516 17.065H23.4516ZM23.7526 15.64C23.9423 15.3201 24.2403 15.158 24.6656 15.158V14.958C24.1788 14.958 23.8108 15.1499 23.5806 15.538L23.7526 15.64ZM24.6656 15.525C24.533 15.525 24.4132 15.5603 24.3104 15.6336C24.2086 15.7064 24.1297 15.8122 24.0704 15.944L24.2528 16.026C24.3015 15.9178 24.3605 15.8436 24.4267 15.7964C24.492 15.7497 24.5701 15.725 24.6656 15.725V15.525ZM24.0695 15.9459C23.9595 16.2047 23.9086 16.581 23.9086 17.065H24.1086C24.1086 16.589 24.1596 16.2453 24.2536 16.0241L24.0695 15.9459ZM23.9086 17.065C23.9086 17.5551 23.9596 17.9369 24.0692 18.2013L24.2539 18.1247C24.1595 17.8971 24.1086 17.5469 24.1086 17.065H23.9086ZM24.0704 18.204C24.1297 18.3358 24.2086 18.4416 24.3104 18.5144C24.4132 18.5877 24.533 18.623 24.6656 18.623V18.423C24.5701 18.423 24.492 18.3983 24.4267 18.3516C24.3605 18.3044 24.3015 18.2302 24.2528 18.122L24.0704 18.204ZM24.6656 18.623C24.8006 18.623 24.9229 18.5881 25.0283 18.5153C25.1331 18.4431 25.2153 18.3377 25.2779 18.2059L25.0972 18.1201C25.0459 18.2283 24.9841 18.3029 24.9148 18.3507C24.8463 18.3979 24.7645 18.423 24.6656 18.423V18.623ZM25.2779 18.2059C25.4016 17.9454 25.4586 17.5613 25.4586 17.065H25.2586C25.2586 17.5527 25.2015 17.9006 25.0972 18.1201L25.2779 18.2059ZM25.4586 17.065C25.4586 16.5803 25.4015 16.2023 25.2779 15.9421L25.0972 16.0279C25.2016 16.2477 25.2586 16.5897 25.2586 17.065H25.4586ZM25.2779 15.9421C25.2153 15.8103 25.1331 15.7049 25.0283 15.6327C24.9229 15.5599 24.8006 15.525 24.6656 15.525V15.725C24.7645 15.725 24.8463 15.7501 24.9148 15.7973C24.9841 15.8451 25.0459 15.9197 25.0972 16.0279L25.2779 15.9421Z" fill="#060606"/>
<defs>
<filter id="filter0_i_1_1784" x="0" y="0" width="32" height="33" filterUnits="userSpaceOnUse" color-interpolation-filters="sRGB">
<feFlood flood-opacity="0" result="BackgroundImageFix"/>
<feBlend mode="normal" in="SourceGraphic" in2="BackgroundImageFix" result="shape"/>
<feColorMatrix in="SourceAlpha" type="matrix" values="0 0 0 0 0 0 0 0 0 0 0 0 0 0 0 0 0 0 127 0" result="hardAlpha"/>
<feOffset dy="3"/>
<feGaussianBlur stdDeviation="0.5"/>
<feComposite in2="hardAlpha" operator="arithmetic" k2="-1" k3="1"/>
<feColorMatrix type="matrix" values="0 0 0 0 1 0 0 0 0 1 0 0 0 0 1 0 0 0 0.25 0"/>
<feBlend mode="normal" in2="shape" result="effect1_innerShadow_1_1784"/>
</filter>
</defs>
</svg>
