<svg width="32" height="32" viewBox="0 0 32 32" fill="none" xmlns="http://www.w3.org/2000/svg">
<path d="M32 16C32 24.8366 24.8366 32 16 32C7.16344 32 0 24.8366 0 16C0 7.16344 7.16344 0 16 0C24.8366 0 32 7.16344 32 16ZM4.16 16C4.16 22.5391 9.46095 27.84 16 27.84C22.5391 27.84 27.84 22.5391 27.84 16C27.84 9.46095 22.5391 4.16 16 4.16C9.46095 4.16 4.16 9.46095 4.16 16Z" fill="black" fill-opacity="0.08"/>
<g filter="url(#filter0_i_1_1795)">
<path d="M16 2.08C16 0.931247 16.9351 -0.0139149 18.0742 0.135008C20.3191 0.428515 22.4845 1.19631 24.4228 2.39646C26.9529 3.96301 28.996 6.20413 30.3225 8.86796C31.649 11.5318 32.2063 14.5128 31.9318 17.4759C31.7215 19.746 31.0294 21.9367 29.9108 23.9051C29.3432 24.9039 28.0254 25.0806 27.1087 24.3883C26.1919 23.6961 26.029 22.3973 26.5503 21.3737C27.2279 20.0434 27.6507 18.5912 27.7895 17.0922C27.9927 14.8995 27.5802 12.6935 26.5986 10.7223C25.6171 8.75105 24.1052 7.09263 22.2329 5.93338C20.953 5.1409 19.5393 4.60317 18.0693 4.34223C16.9383 4.14145 16 3.22875 16 2.08Z" fill="#E5AE21"/>
</g>
<path d="M10.9072 15.724C11.4832 15.832 12.0862 16.291 12.0862 17.254C12.0862 18.325 11.1862 19.054 9.81823 19.054C8.45023 19.054 7.56823 18.307 7.56823 17.056H8.31523C8.32423 17.884 8.97223 18.379 9.86323 18.379C10.6822 18.379 11.3122 17.92 11.3122 17.2C11.3122 16.543 10.7722 16.12 9.79123 16.12H9.25123V15.463H9.74623C10.6822 15.463 11.1502 14.995 11.1502 14.356C11.1502 13.717 10.5742 13.321 9.81823 13.321C9.02623 13.321 8.45023 13.798 8.44123 14.518H7.69423C7.70323 13.411 8.56723 12.646 9.80923 12.646C11.1052 12.646 11.9242 13.321 11.9242 14.311C11.9242 15.103 11.5102 15.562 10.9072 15.724ZM15.014 14.779C16.247 14.779 17.102 15.643 17.102 16.894C17.102 18.289 16.076 19.045 14.897 19.045C13.493 19.045 12.683 18.136 12.62 17.038H13.367C13.439 17.767 13.988 18.37 14.897 18.37C15.635 18.37 16.328 17.875 16.328 16.903C16.328 16.048 15.779 15.445 14.906 15.445C14.519 15.445 13.745 15.553 13.475 16.3L12.746 16.282L12.953 12.7H16.724V13.393H13.646L13.502 15.382C13.889 14.923 14.429 14.779 15.014 14.779ZM18.9593 12.484C19.4033 12.484 19.7393 12.661 19.9673 13.015C20.1953 13.363 20.3093 13.855 20.3093 14.491C20.3093 15.127 20.1983 15.625 19.9763 15.985C19.7603 16.339 19.4213 16.516 18.9593 16.516C18.6773 16.516 18.4373 16.435 18.2393 16.273C18.0413 16.111 17.8913 15.88 17.7893 15.58C17.6933 15.274 17.6453 14.911 17.6453 14.491C17.6453 13.855 17.7503 13.363 17.9603 13.015C18.1703 12.661 18.5033 12.484 18.9593 12.484ZM18.9593 13.042C18.7313 13.042 18.5633 13.165 18.4553 13.411C18.3533 13.651 18.3023 14.011 18.3023 14.491C18.3023 14.971 18.3533 15.334 18.4553 15.58C18.5633 15.826 18.7313 15.949 18.9593 15.949C19.1933 15.949 19.3673 15.829 19.4813 15.589C19.5953 15.343 19.6523 14.977 19.6523 14.491C19.6523 14.011 19.5953 13.651 19.4813 13.411C19.3673 13.165 19.1933 13.042 18.9593 13.042ZM23.0723 12.574L19.5083 19H18.8153L22.3793 12.574H23.0723ZM22.8923 15.058C23.1863 15.058 23.4323 15.139 23.6303 15.301C23.8283 15.457 23.9783 15.685 24.0803 15.985C24.1883 16.279 24.2423 16.639 24.2423 17.065C24.2423 17.701 24.1313 18.199 23.9093 18.559C23.6933 18.913 23.3543 19.09 22.8923 19.09C22.6103 19.09 22.3703 19.009 22.1723 18.847C21.9743 18.685 21.8243 18.454 21.7223 18.154C21.6263 17.848 21.5783 17.485 21.5783 17.065C21.5783 16.429 21.6833 15.937 21.8933 15.589C22.1033 15.235 22.4363 15.058 22.8923 15.058ZM22.8923 15.625C22.6643 15.625 22.4963 15.745 22.3883 15.985C22.2863 16.225 22.2353 16.585 22.2353 17.065C22.2353 17.551 22.2863 17.917 22.3883 18.163C22.4963 18.403 22.6643 18.523 22.8923 18.523C23.1263 18.523 23.3003 18.403 23.4143 18.163C23.5283 17.923 23.5853 17.557 23.5853 17.065C23.5853 16.585 23.5283 16.225 23.4143 15.985C23.3003 15.745 23.1263 15.625 22.8923 15.625Z" fill="#060606"/>
<path d="M10.9072 15.724L10.8813 15.6274L10.8888 15.8223L10.9072 15.724ZM7.56823 17.056V16.956H7.46823V17.056H7.56823ZM8.31523 17.056L8.41522 17.0549L8.41415 16.956H8.31523V17.056ZM9.25123 16.12H9.15123V16.22H9.25123V16.12ZM9.25123 15.463V15.363H9.15123V15.463H9.25123ZM8.44123 14.518V14.618H8.53999L8.54122 14.5192L8.44123 14.518ZM7.69423 14.518L7.59423 14.5172L7.59341 14.618H7.69423V14.518ZM10.8888 15.8223C11.1585 15.8729 11.4323 16.0052 11.6383 16.2351C11.843 16.4637 11.9862 16.7947 11.9862 17.254H12.1862C12.1862 16.7503 12.0279 16.3703 11.7872 16.1016C11.5476 15.8343 11.232 15.6831 10.9257 15.6257L10.8888 15.8223ZM11.9862 17.254C11.9862 17.7589 11.7752 18.1802 11.4028 18.4775C11.0286 18.7762 10.4853 18.954 9.81823 18.954V19.154C10.5192 19.154 11.1099 18.9673 11.5276 18.6338C11.9472 18.2988 12.1862 17.8201 12.1862 17.254H11.9862ZM9.81823 18.954C9.15169 18.954 8.61488 18.7721 8.24614 18.4489C7.87902 18.1272 7.66823 17.6565 7.66823 17.056H7.46823C7.46823 17.7065 7.69845 18.2348 8.11432 18.5993C8.52859 18.9624 9.11677 19.154 9.81823 19.154V18.954ZM7.56823 17.156H8.31523V16.956H7.56823V17.156ZM8.21524 17.0571C8.22004 17.4992 8.39658 17.8582 8.69471 18.105C8.991 18.3503 9.39999 18.479 9.86323 18.479V18.279C9.43547 18.279 9.07497 18.1602 8.82225 17.951C8.57139 17.7433 8.41942 17.4408 8.41522 17.0549L8.21524 17.0571ZM9.86323 18.479C10.2905 18.479 10.6759 18.3593 10.9567 18.138C11.2395 17.9153 11.4122 17.5922 11.4122 17.2H11.2122C11.2122 17.5278 11.07 17.7942 10.833 17.981C10.5941 18.1692 10.2549 18.279 9.86323 18.279V18.479ZM11.4122 17.2C11.4122 16.8406 11.2628 16.5402 10.9785 16.3328C10.698 16.1282 10.2943 16.02 9.79123 16.02V16.22C10.2691 16.22 10.626 16.3233 10.8607 16.4944C11.0916 16.6628 11.2122 16.9024 11.2122 17.2H11.4122ZM9.79123 16.02H9.25123V16.22H9.79123V16.02ZM9.35123 16.12V15.463H9.15123V16.12H9.35123ZM9.25123 15.563H9.74623V15.363H9.25123V15.563ZM9.74623 15.563C10.2299 15.563 10.6063 15.4421 10.8636 15.2256C11.1228 15.0076 11.2502 14.7015 11.2502 14.356H11.0502C11.0502 14.6495 10.9437 14.8969 10.7349 15.0726C10.5241 15.2499 10.1986 15.363 9.74623 15.363V15.563ZM11.2502 14.356C11.2502 14.0029 11.0897 13.7153 10.8277 13.5189C10.5681 13.3242 10.2125 13.221 9.81823 13.221V13.421C10.1799 13.421 10.4904 13.5158 10.7077 13.6789C10.9228 13.8402 11.0502 14.0701 11.0502 14.356H11.2502ZM9.81823 13.221C9.40253 13.221 9.03621 13.3463 8.77103 13.5736C8.50469 13.8019 8.34609 14.1285 8.34124 14.5167L8.54122 14.5192C8.54537 14.1875 8.67927 13.9156 8.90119 13.7254C9.12425 13.5342 9.44194 13.421 9.81823 13.421V13.221ZM8.44123 14.418H7.69423V14.618H8.44123V14.418ZM7.79423 14.5188C7.79851 13.9927 8.00522 13.5519 8.35564 13.2418C8.70691 12.9308 9.2086 12.746 9.80923 12.746V12.546C9.16786 12.546 8.61655 12.7437 8.22307 13.092C7.82874 13.4411 7.59896 13.9363 7.59423 14.5172L7.79423 14.5188ZM9.80923 12.746C10.4408 12.746 10.9456 12.9105 11.2904 13.1854C11.6331 13.4588 11.8242 13.8461 11.8242 14.311H12.0242C12.0242 13.7859 11.8058 13.3407 11.4151 13.0291C11.0263 12.719 10.4737 12.546 9.80923 12.546V12.746ZM11.8242 14.311C11.8242 14.6892 11.7256 14.9795 11.5624 15.193C11.3991 15.4067 11.1652 15.5511 10.8813 15.6274L10.9332 15.8206C11.2523 15.7349 11.5269 15.5688 11.7213 15.3145C11.9158 15.06 12.0242 14.7248 12.0242 14.311H11.8242ZM12.62 17.038V16.938H12.5141L12.5202 17.0437L12.62 17.038ZM13.367 17.038L13.4666 17.0282L13.4577 16.938H13.367V17.038ZM13.475 16.3L13.4726 16.4L13.5446 16.4017L13.5691 16.334L13.475 16.3ZM12.746 16.282L12.6462 16.2762L12.6402 16.3794L12.7436 16.382L12.746 16.282ZM12.953 12.7V12.6H12.8587L12.8532 12.6942L12.953 12.7ZM16.724 12.7H16.824V12.6H16.724V12.7ZM16.724 13.393V13.493H16.824V13.393H16.724ZM13.646 13.393V13.293H13.553L13.5463 13.3858L13.646 13.393ZM13.502 15.382L13.4023 15.3748L13.3801 15.6818L13.5785 15.4465L13.502 15.382ZM15.014 14.879C15.6065 14.879 16.102 15.0861 16.4493 15.4377C16.7966 15.7893 17.002 16.2918 17.002 16.894H17.202C17.202 16.2452 16.9799 15.6902 16.5916 15.2971C16.2031 14.9039 15.6546 14.679 15.014 14.679V14.879ZM17.002 16.894C17.002 17.5652 16.7561 18.0752 16.3748 18.4183C15.992 18.7627 15.4657 18.945 14.897 18.945V19.145C15.5074 19.145 16.0836 18.9493 16.5086 18.567C16.935 18.1833 17.202 17.6178 17.202 16.894H17.002ZM14.897 18.945C14.2174 18.945 13.6895 18.7255 13.3243 18.3806C12.9587 18.0352 12.7501 17.5582 12.7199 17.0323L12.5202 17.0437C12.553 17.6158 12.7809 18.1423 13.187 18.5259C13.5936 18.91 14.1726 19.145 14.897 19.145V18.945ZM12.62 17.138H13.367V16.938H12.62V17.138ZM13.2675 17.0478C13.3443 17.8256 13.9342 18.47 14.897 18.47V18.27C14.0419 18.27 13.5337 17.7084 13.4666 17.0282L13.2675 17.0478ZM14.897 18.47C15.2878 18.47 15.6708 18.3389 15.9571 18.0745C16.2449 17.8087 16.428 17.4144 16.428 16.903H16.228C16.228 17.3636 16.0647 17.7028 15.8214 17.9275C15.5768 18.1536 15.2443 18.27 14.897 18.27V18.47ZM16.428 16.903C16.428 16.454 16.2836 16.0634 16.0167 15.7843C15.7493 15.5046 15.3665 15.345 14.906 15.345V15.545C15.3186 15.545 15.6468 15.6869 15.8721 15.9225C16.098 16.1586 16.228 16.497 16.228 16.903H16.428ZM14.906 15.345C14.514 15.345 13.6748 15.4533 13.381 16.266L13.5691 16.334C13.8153 15.6527 14.5241 15.545 14.906 15.545V15.345ZM13.4775 16.2L12.7485 16.182L12.7436 16.382L13.4726 16.4L13.4775 16.2ZM12.8459 16.2878L13.0529 12.7058L12.8532 12.6942L12.6462 16.2762L12.8459 16.2878ZM12.953 12.8H16.724V12.6H12.953V12.8ZM16.624 12.7V13.393H16.824V12.7H16.624ZM16.724 13.293H13.646V13.493H16.724V13.293ZM13.5463 13.3858L13.4023 15.3748L13.6018 15.3892L13.7458 13.4002L13.5463 13.3858ZM13.5785 15.4465C13.9391 15.0188 14.4447 14.879 15.014 14.879V14.679C14.4134 14.679 13.839 14.8272 13.4256 15.3175L13.5785 15.4465ZM19.9673 13.015L19.8832 13.0691L19.8836 13.0698L19.9673 13.015ZM19.9763 15.985L19.8912 15.9325L19.8909 15.9329L19.9763 15.985ZM18.2393 16.273L18.176 16.3504L18.2393 16.273ZM17.7893 15.58L17.6938 15.6099L17.6946 15.6122L17.7893 15.58ZM17.9603 13.015L18.0459 13.0667L18.0463 13.066L17.9603 13.015ZM18.4553 13.411L18.3637 13.3708L18.3632 13.3719L18.4553 13.411ZM18.4553 15.58L18.3629 15.6183L18.3637 15.6202L18.4553 15.58ZM19.4813 15.589L19.5716 15.6319L19.572 15.631L19.4813 15.589ZM19.4813 13.411L19.3905 13.453L19.391 13.4539L19.4813 13.411ZM23.0723 12.574L23.1597 12.6225L23.2421 12.474H23.0723V12.574ZM19.5083 19V19.1H19.5672L19.5957 19.0485L19.5083 19ZM18.8153 19L18.7278 18.9515L18.6455 19.1H18.8153V19ZM22.3793 12.574V12.474H22.3204L22.2918 12.5255L22.3793 12.574ZM23.6303 15.301L23.5669 15.3784L23.5684 15.3795L23.6303 15.301ZM24.0803 15.985L23.9856 16.0172L23.9864 16.0195L24.0803 15.985ZM23.9093 18.559L23.8242 18.5065L23.8239 18.5069L23.9093 18.559ZM22.1723 18.847L22.109 18.9244L22.1723 18.847ZM21.7223 18.154L21.6268 18.1839L21.6276 18.1862L21.7223 18.154ZM21.8933 15.589L21.9789 15.6407L21.9793 15.64L21.8933 15.589ZM22.3883 15.985L22.2971 15.944L22.2962 15.9459L22.3883 15.985ZM22.3883 18.163L22.2959 18.2013L22.2971 18.204L22.3883 18.163ZM23.4143 18.163L23.5046 18.2059V18.2059L23.4143 18.163ZM23.4143 15.985L23.5046 15.9421L23.4143 15.985ZM18.9593 12.584C19.3715 12.584 19.6748 12.7455 19.8832 13.0691L20.0513 12.9609C19.8038 12.5764 19.4351 12.384 18.9593 12.384V12.584ZM19.8836 13.0698C20.0967 13.395 20.2093 13.8649 20.2093 14.491H20.4093C20.4093 13.8451 20.2938 13.331 20.0509 12.9602L19.8836 13.0698ZM20.2093 14.491C20.2093 15.1171 20.0997 15.5943 19.8912 15.9325L20.0614 16.0375C20.2969 15.6557 20.4093 15.1369 20.4093 14.491H20.2093ZM19.8909 15.9329C19.6954 16.2533 19.3912 16.416 18.9593 16.416V16.616C19.4514 16.616 19.8251 16.4247 20.0616 16.0371L19.8909 15.9329ZM18.9593 16.416C18.6978 16.416 18.4809 16.3415 18.3026 16.1956L18.176 16.3504C18.3937 16.5285 18.6567 16.616 18.9593 16.616V16.416ZM18.3026 16.1956C18.1222 16.048 17.9814 15.8343 17.884 15.5478L17.6946 15.6122C17.8012 15.9257 17.9604 16.174 18.176 16.3504L18.3026 16.1956ZM17.8847 15.5501C17.7925 15.2562 17.7453 14.9038 17.7453 14.491H17.5453C17.5453 14.9182 17.5941 15.2918 17.6939 15.6099L17.8847 15.5501ZM17.7453 14.491C17.7453 13.8638 17.8492 13.3926 18.0459 13.0667L17.8747 12.9633C17.6514 13.3334 17.5453 13.8462 17.5453 14.491H17.7453ZM18.0463 13.066C18.236 12.7461 18.534 12.584 18.9593 12.584V12.384C18.4726 12.384 18.1045 12.5759 17.8743 12.964L18.0463 13.066ZM18.9593 12.942C18.8262 12.942 18.706 12.9783 18.6032 13.0536C18.5014 13.1281 18.4228 13.2363 18.3637 13.3708L18.5468 13.4512C18.5958 13.3397 18.6551 13.2634 18.7214 13.2149C18.7866 13.1672 18.8644 13.142 18.9593 13.142V12.942ZM18.3632 13.3719C18.2533 13.6307 18.2023 14.007 18.2023 14.491H18.4023C18.4023 14.015 18.4533 13.6713 18.5473 13.4501L18.3632 13.3719ZM18.2023 14.491C18.2023 14.9753 18.2533 15.354 18.3629 15.6183L18.5477 15.5417C18.4532 15.314 18.4023 14.9667 18.4023 14.491H18.2023ZM18.3637 15.6202C18.4228 15.7547 18.5014 15.8629 18.6032 15.9374C18.706 16.0127 18.8262 16.049 18.9593 16.049V15.849C18.8644 15.849 18.7866 15.8238 18.7214 15.7761C18.6551 15.7276 18.5958 15.6513 18.5468 15.5398L18.3637 15.6202ZM18.9593 16.049C19.0943 16.049 19.2166 16.0141 19.3221 15.9413C19.4268 15.8691 19.509 15.7637 19.5716 15.6319L19.391 15.5461C19.3396 15.6543 19.2778 15.7289 19.2085 15.7767C19.14 15.8239 19.0583 15.849 18.9593 15.849V16.049ZM19.572 15.631C19.6952 15.3652 19.7523 14.9818 19.7523 14.491H19.5523C19.5523 14.9722 19.4954 15.3208 19.3905 15.547L19.572 15.631ZM19.7523 14.491C19.7523 14.0063 19.6952 13.6283 19.5716 13.3681L19.391 13.4539C19.4953 13.6737 19.5523 14.0157 19.5523 14.491H19.7523ZM19.572 13.369C19.5096 13.2343 19.4277 13.1266 19.323 13.0526C19.2175 12.978 19.0948 12.942 18.9593 12.942V13.142C19.0577 13.142 19.1391 13.1675 19.2076 13.2159C19.2769 13.2649 19.3389 13.3417 19.3905 13.453L19.572 13.369ZM22.9848 12.5255L19.4208 18.9515L19.5957 19.0485L23.1597 12.6225L22.9848 12.5255ZM19.5083 18.9H18.8153V19.1H19.5083V18.9ZM18.9027 19.0485L22.4667 12.6225L22.2918 12.5255L18.7278 18.9515L18.9027 19.0485ZM22.3793 12.674H23.0723V12.474H22.3793V12.674ZM22.8923 15.158C23.1668 15.158 23.3894 15.2332 23.567 15.3784L23.6936 15.2236C23.4751 15.0448 23.2057 14.958 22.8923 14.958V15.158ZM23.5684 15.3795C23.7477 15.5209 23.8882 15.7308 23.9856 16.0172L24.175 15.9528C24.0683 15.6392 23.9088 15.3931 23.6922 15.2225L23.5684 15.3795ZM23.9864 16.0195C24.0892 16.2993 24.1423 16.6468 24.1423 17.065H24.3423C24.3423 16.6312 24.2874 16.2587 24.1741 15.9505L23.9864 16.0195ZM24.1423 17.065C24.1423 17.6911 24.0327 18.1683 23.8242 18.5065L23.9944 18.6115C24.2299 18.2297 24.3423 17.7109 24.3423 17.065H24.1423ZM23.8239 18.5069C23.6284 18.8273 23.3242 18.99 22.8923 18.99V19.19C23.3844 19.19 23.7581 18.9987 23.9946 18.6111L23.8239 18.5069ZM22.8923 18.99C22.6308 18.99 22.4139 18.9155 22.2356 18.7696L22.109 18.9244C22.3267 19.1025 22.5897 19.19 22.8923 19.19V18.99ZM22.2356 18.7696C22.0552 18.622 21.9144 18.4083 21.817 18.1218L21.6276 18.1862C21.7342 18.4997 21.8934 18.748 22.109 18.9244L22.2356 18.7696ZM21.8177 18.1241C21.7255 17.8302 21.6783 17.4778 21.6783 17.065H21.4783C21.4783 17.4922 21.5271 17.8658 21.6269 18.1839L21.8177 18.1241ZM21.6783 17.065C21.6783 16.4378 21.7822 15.9666 21.9789 15.6407L21.8077 15.5373C21.5844 15.9074 21.4783 16.4202 21.4783 17.065H21.6783ZM21.9793 15.64C22.169 15.3201 22.467 15.158 22.8923 15.158V14.958C22.4056 14.958 22.0375 15.1499 21.8073 15.538L21.9793 15.64ZM22.8923 15.525C22.7597 15.525 22.6399 15.5603 22.5372 15.6336C22.4353 15.7064 22.3564 15.8122 22.2971 15.944L22.4795 16.026C22.5282 15.9178 22.5872 15.8436 22.6534 15.7964C22.7187 15.7497 22.7968 15.725 22.8923 15.725V15.525ZM22.2962 15.9459C22.1863 16.2047 22.1353 16.581 22.1353 17.065H22.3353C22.3353 16.589 22.3863 16.2453 22.4803 16.0241L22.2962 15.9459ZM22.1353 17.065C22.1353 17.5551 22.1863 17.9369 22.2959 18.2013L22.4807 18.1247C22.3863 17.8971 22.3353 17.5469 22.3353 17.065H22.1353ZM22.2971 18.204C22.3564 18.3358 22.4353 18.4416 22.5372 18.5144C22.6399 18.5877 22.7597 18.623 22.8923 18.623V18.423C22.7968 18.423 22.7187 18.3983 22.6534 18.3516C22.5872 18.3044 22.5282 18.2302 22.4795 18.122L22.2971 18.204ZM22.8923 18.623C23.0273 18.623 23.1496 18.5881 23.2551 18.5153C23.3598 18.4431 23.442 18.3377 23.5046 18.2059L23.324 18.1201C23.2726 18.2283 23.2108 18.3029 23.1415 18.3507C23.073 18.3979 22.9913 18.423 22.8923 18.423V18.623ZM23.5046 18.2059C23.6283 17.9454 23.6853 17.5613 23.6853 17.065H23.4853C23.4853 17.5527 23.4282 17.9006 23.3239 18.1201L23.5046 18.2059ZM23.6853 17.065C23.6853 16.5803 23.6282 16.2023 23.5046 15.9421L23.3239 16.0279C23.4283 16.2477 23.4853 16.5897 23.4853 17.065H23.6853ZM23.5046 15.9421C23.442 15.8103 23.3598 15.7049 23.2551 15.6327C23.1496 15.5599 23.0273 15.525 22.8923 15.525V15.725C22.9913 15.725 23.073 15.7501 23.1415 15.7973C23.2108 15.8451 23.2726 15.9197 23.324 16.0279L23.5046 15.9421Z" fill="#060606"/>
<defs>
<filter id="filter0_i_1_1795" x="16" y="0.119629" width="16" height="25.6853" filterUnits="userSpaceOnUse" color-interpolation-filters="sRGB">
<feFlood flood-opacity="0" result="BackgroundImageFix"/>
<feBlend mode="normal" in="SourceGraphic" in2="BackgroundImageFix" result="shape"/>
<feColorMatrix in="SourceAlpha" type="matrix" values="0 0 0 0 0 0 0 0 0 0 0 0 0 0 0 0 0 0 127 0" result="hardAlpha"/>
<feOffset dy="3"/>
<feGaussianBlur stdDeviation="0.5"/>
<feComposite in2="hardAlpha" operator="arithmetic" k2="-1" k3="1"/>
<feColorMatrix type="matrix" values="0 0 0 0 1 0 0 0 0 1 0 0 0 0 1 0 0 0 0.25 0"/>
<feBlend mode="normal" in2="shape" result="effect1_innerShadow_1_1795"/>
</filter>
</defs>
</svg>
