<svg width="32" height="32" viewBox="0 0 32 32" fill="none" xmlns="http://www.w3.org/2000/svg">
<path d="M32 16C32 24.8366 24.8366 32 16 32C7.16344 32 0 24.8366 0 16C0 7.16344 7.16344 0 16 0C24.8366 0 32 7.16344 32 16ZM4.16 16C4.16 22.5391 9.46095 27.84 16 27.84C22.5391 27.84 27.84 22.5391 27.84 16C27.84 9.46095 22.5391 4.16 16 4.16C9.46095 4.16 4.16 9.46095 4.16 16Z" fill="black" fill-opacity="0.08"/>
<g filter="url(#filter0_i_1_1826)">
<path d="M14.0152 29.7778C13.8514 30.9148 14.6422 31.9836 15.7908 31.9986C17.287 32.0182 18.782 31.8278 20.2316 31.4303C22.3516 30.8489 24.3291 29.8368 26.0407 28.4573C27.7523 27.0778 29.1612 25.3603 30.1796 23.4121C31.198 21.4639 31.804 19.3268 31.9598 17.134C32.1156 14.9412 31.8178 12.7398 31.0851 10.6672C30.3524 8.59459 29.2005 6.69519 27.7012 5.08751C26.2019 3.47983 24.3873 2.19836 22.3708 1.32305C20.992 0.724535 19.5389 0.324697 18.055 0.132516C16.9158 -0.0150271 15.9818 0.931259 15.9832 2.08001C15.9846 3.22876 16.9239 4.14034 18.0552 4.33974C18.9676 4.50055 19.8602 4.76829 20.7144 5.13905C22.2066 5.78679 23.5494 6.73507 24.6589 7.92476C25.7684 9.11444 26.6208 10.52 27.163 12.0537C27.7052 13.5875 27.9255 15.2165 27.8102 16.8391C27.6949 18.4618 27.2465 20.0433 26.4929 21.485C25.7393 22.9266 24.6967 24.1975 23.4301 25.2184C22.1636 26.2393 20.7002 26.9882 19.1314 27.4184C18.2334 27.6647 17.3118 27.8035 16.3859 27.8337C15.2378 27.8712 14.179 28.6408 14.0152 29.7778Z" fill="#E65F2B"/>
</g>
<path d="M9.85029 14.779C11.0833 14.779 11.9383 15.643 11.9383 16.894C11.9383 18.289 10.9123 19.045 9.73329 19.045C8.32929 19.045 7.51929 18.136 7.45629 17.038H8.20329C8.27529 17.767 8.82429 18.37 9.73329 18.37C10.4713 18.37 11.1643 17.875 11.1643 16.903C11.1643 16.048 10.6153 15.445 9.74229 15.445C9.35529 15.445 8.58129 15.553 8.31129 16.3L7.58229 16.282L7.78929 12.7H11.5603V13.393H8.48229L8.33829 15.382C8.72529 14.923 9.26529 14.779 9.85029 14.779ZM12.4275 15.994V15.706C12.4275 13.915 13.3995 12.646 14.8215 12.646C16.2345 12.646 17.2065 13.915 17.2065 15.706V15.994C17.2065 17.875 16.2345 19.054 14.8215 19.054C13.3995 19.054 12.4275 17.875 12.4275 15.994ZM16.4415 15.967V15.733C16.4415 14.239 15.7935 13.339 14.8215 13.339C13.8405 13.339 13.1925 14.239 13.1925 15.733V15.967C13.1925 17.461 13.8405 18.361 14.8215 18.361C15.7935 18.361 16.4415 17.461 16.4415 15.967ZM19.1702 12.484C19.6142 12.484 19.9502 12.661 20.1782 13.015C20.4062 13.363 20.5202 13.855 20.5202 14.491C20.5202 15.127 20.4092 15.625 20.1872 15.985C19.9712 16.339 19.6322 16.516 19.1702 16.516C18.8882 16.516 18.6482 16.435 18.4502 16.273C18.2522 16.111 18.1022 15.88 18.0002 15.58C17.9042 15.274 17.8562 14.911 17.8562 14.491C17.8562 13.855 17.9612 13.363 18.1712 13.015C18.3812 12.661 18.7142 12.484 19.1702 12.484ZM19.1702 13.042C18.9422 13.042 18.7742 13.165 18.6662 13.411C18.5642 13.651 18.5132 14.011 18.5132 14.491C18.5132 14.971 18.5642 15.334 18.6662 15.58C18.7742 15.826 18.9422 15.949 19.1702 15.949C19.4042 15.949 19.5782 15.829 19.6922 15.589C19.8062 15.343 19.8632 14.977 19.8632 14.491C19.8632 14.011 19.8062 13.651 19.6922 13.411C19.5782 13.165 19.4042 13.042 19.1702 13.042ZM23.2832 12.574L19.7192 19H19.0262L22.5902 12.574H23.2832ZM23.1032 15.058C23.3972 15.058 23.6432 15.139 23.8412 15.301C24.0392 15.457 24.1892 15.685 24.2912 15.985C24.3992 16.279 24.4532 16.639 24.4532 17.065C24.4532 17.701 24.3422 18.199 24.1202 18.559C23.9042 18.913 23.5652 19.09 23.1032 19.09C22.8212 19.09 22.5812 19.009 22.3832 18.847C22.1852 18.685 22.0352 18.454 21.9332 18.154C21.8372 17.848 21.7892 17.485 21.7892 17.065C21.7892 16.429 21.8942 15.937 22.1042 15.589C22.3142 15.235 22.6472 15.058 23.1032 15.058ZM23.1032 15.625C22.8752 15.625 22.7072 15.745 22.5992 15.985C22.4972 16.225 22.4462 16.585 22.4462 17.065C22.4462 17.551 22.4972 17.917 22.5992 18.163C22.7072 18.403 22.8752 18.523 23.1032 18.523C23.3372 18.523 23.5112 18.403 23.6252 18.163C23.7392 17.923 23.7962 17.557 23.7962 17.065C23.7962 16.585 23.7392 16.225 23.6252 15.985C23.5112 15.745 23.3372 15.625 23.1032 15.625Z" fill="#060606"/>
<path d="M7.45629 17.038V16.938H7.35039L7.35646 17.0437L7.45629 17.038ZM8.20329 17.038L8.30281 17.0282L8.2939 16.938H8.20329V17.038ZM8.31129 16.3L8.30883 16.4L8.38085 16.4017L8.40534 16.334L8.31129 16.3ZM7.58229 16.282L7.48246 16.2762L7.4765 16.3794L7.57982 16.382L7.58229 16.282ZM7.78929 12.7V12.6H7.69491L7.68946 12.6942L7.78929 12.7ZM11.5603 12.7H11.6603V12.6H11.5603V12.7ZM11.5603 13.393V13.493H11.6603V13.393H11.5603ZM8.48229 13.393V13.293H8.38927L8.38255 13.3858L8.48229 13.393ZM8.33829 15.382L8.23855 15.3748L8.21633 15.6818L8.41475 15.4465L8.33829 15.382ZM9.85029 14.879C10.4427 14.879 10.9382 15.0861 11.2855 15.4377C11.6329 15.7893 11.8383 16.2918 11.8383 16.894H12.0383C12.0383 16.2452 11.8162 15.6902 11.4278 15.2971C11.0393 14.9039 10.4908 14.679 9.85029 14.679V14.879ZM11.8383 16.894C11.8383 17.5652 11.5924 18.0752 11.211 18.4183C10.8282 18.7627 10.302 18.945 9.73329 18.945V19.145C10.3436 19.145 10.9199 18.9493 11.3448 18.567C11.7712 18.1833 12.0383 17.6178 12.0383 16.894H11.8383ZM9.73329 18.945C9.05369 18.945 8.52573 18.7255 8.16059 18.3806C7.79496 18.0352 7.58631 17.5582 7.55613 17.0323L7.35646 17.0437C7.38928 17.6158 7.61713 18.1423 8.02325 18.5259C8.42985 18.91 9.0089 19.145 9.73329 19.145V18.945ZM7.45629 17.138H8.20329V16.938H7.45629V17.138ZM8.10378 17.0478C8.18059 17.8256 8.77048 18.47 9.73329 18.47V18.27C8.8781 18.27 8.36999 17.7084 8.30281 17.0282L8.10378 17.0478ZM9.73329 18.47C10.1241 18.47 10.5071 18.3389 10.7934 18.0745C11.0811 17.8087 11.2643 17.4144 11.2643 16.903H11.0643C11.0643 17.3636 10.9009 17.7028 10.6577 17.9275C10.413 18.1536 10.0805 18.27 9.73329 18.27V18.47ZM11.2643 16.903C11.2643 16.454 11.1199 16.0634 10.8529 15.7843C10.5855 15.5046 10.2028 15.345 9.74229 15.345V15.545C10.1548 15.545 10.4831 15.6869 10.7084 15.9225C10.9342 16.1586 11.0643 16.497 11.0643 16.903H11.2643ZM9.74229 15.345C9.3502 15.345 8.511 15.4533 8.21725 16.266L8.40534 16.334C8.65158 15.6527 9.36038 15.545 9.74229 15.545V15.345ZM8.31376 16.2L7.58476 16.182L7.57982 16.382L8.30883 16.4L8.31376 16.2ZM7.68213 16.2878L7.88913 12.7058L7.68946 12.6942L7.48246 16.2762L7.68213 16.2878ZM7.78929 12.8H11.5603V12.6H7.78929V12.8ZM11.4603 12.7V13.393H11.6603V12.7H11.4603ZM11.5603 13.293H8.48229V13.493H11.5603V13.293ZM8.38255 13.3858L8.23855 15.3748L8.43803 15.3892L8.58203 13.4002L8.38255 13.3858ZM8.41475 15.4465C8.77536 15.0188 9.28097 14.879 9.85029 14.879V14.679C9.24962 14.679 8.67523 14.8272 8.26184 15.3175L8.41475 15.4465ZM12.5275 15.994V15.706H12.3275V15.994H12.5275ZM12.5275 15.706C12.5275 14.8277 12.7659 14.0858 13.1702 13.5658C13.5732 13.0475 14.1432 12.746 14.8215 12.746V12.546C14.0778 12.546 13.4509 12.879 13.0123 13.443C12.5752 14.0052 12.3275 14.7933 12.3275 15.706H12.5275ZM14.8215 12.746C15.4951 12.746 16.0629 13.0473 16.4649 13.5657C16.8682 14.0857 17.1065 14.8277 17.1065 15.706H17.3065C17.3065 14.7933 17.0589 14.0053 16.6229 13.4431C16.1856 12.8792 15.5609 12.546 14.8215 12.546V12.746ZM17.1065 15.706V15.994H17.3065V15.706H17.1065ZM17.1065 15.994C17.1065 16.9182 16.8677 17.6594 16.4655 18.1673C16.0649 18.6731 15.4976 18.954 14.8215 18.954V19.154C15.5585 19.154 16.1836 18.8454 16.6223 18.2915C17.0594 17.7396 17.3065 16.9508 17.3065 15.994H17.1065ZM14.8215 18.954C14.1408 18.954 13.5712 18.673 13.1696 18.1672C12.7664 17.6594 12.5275 16.9182 12.5275 15.994H12.3275C12.3275 16.9508 12.5747 17.7396 13.013 18.2916C13.4528 18.8455 14.0803 19.154 14.8215 19.154V18.954ZM16.5415 15.967V15.733H16.3415V15.967H16.5415ZM16.5415 15.733C16.5415 14.9731 16.377 14.3527 16.0784 13.919C15.7776 13.4821 15.3427 13.239 14.8215 13.239V13.439C15.2723 13.439 15.6475 13.6459 15.9137 14.0325C16.1821 14.4223 16.3415 14.9989 16.3415 15.733H16.5415ZM14.8215 13.239C14.2961 13.239 13.859 13.4819 13.5569 13.9189C13.2571 14.3526 13.0925 14.9732 13.0925 15.733H13.2925C13.2925 14.9988 13.452 14.4224 13.7214 14.0326C13.9886 13.6461 14.3659 13.439 14.8215 13.439V13.239ZM13.0925 15.733V15.967H13.2925V15.733H13.0925ZM13.0925 15.967C13.0925 16.7268 13.2571 17.3474 13.5569 17.7811C13.859 18.2181 14.2961 18.461 14.8215 18.461V18.261C14.3659 18.261 13.9886 18.0539 13.7214 17.6674C13.452 17.2776 13.2925 16.7012 13.2925 15.967H13.0925ZM14.8215 18.461C15.3427 18.461 15.7776 18.2179 16.0784 17.781C16.377 17.3473 16.5415 16.7269 16.5415 15.967H16.3415C16.3415 16.7011 16.1821 17.2777 15.9137 17.6675C15.6475 18.0541 15.2723 18.261 14.8215 18.261V18.461ZM20.1782 13.015L20.0941 13.0691L20.0946 13.0698L20.1782 13.015ZM20.1872 15.985L20.1021 15.9325L20.1019 15.9329L20.1872 15.985ZM18.4502 16.273L18.3869 16.3504L18.4502 16.273ZM18.0002 15.58L17.9048 15.6099L17.9055 15.6122L18.0002 15.58ZM18.1712 13.015L18.2568 13.0667L18.2572 13.066L18.1712 13.015ZM18.6662 13.411L18.5746 13.3708L18.5742 13.3719L18.6662 13.411ZM18.6662 15.58L18.5738 15.6183L18.5747 15.6202L18.6662 15.58ZM19.6922 15.589L19.7825 15.6319L19.7829 15.631L19.6922 15.589ZM19.6922 13.411L19.6015 13.453L19.6019 13.4539L19.6922 13.411ZM23.2832 12.574L23.3707 12.6225L23.453 12.474H23.2832V12.574ZM19.7192 19V19.1H19.7781L19.8067 19.0485L19.7192 19ZM19.0262 19L18.9388 18.9515L18.8564 19.1H19.0262V19ZM22.5902 12.574V12.474H22.5313L22.5028 12.5255L22.5902 12.574ZM23.8412 15.301L23.7779 15.3784L23.7793 15.3795L23.8412 15.301ZM24.2912 15.985L24.1965 16.0172L24.1973 16.0195L24.2912 15.985ZM24.1202 18.559L24.0351 18.5065L24.0349 18.5069L24.1202 18.559ZM22.3832 18.847L22.3199 18.9244L22.3832 18.847ZM21.9332 18.154L21.8378 18.1839L21.8385 18.1862L21.9332 18.154ZM22.1042 15.589L22.1898 15.6407L22.1902 15.64L22.1042 15.589ZM22.5992 15.985L22.508 15.944L22.5072 15.9459L22.5992 15.985ZM22.5992 18.163L22.5068 18.2013L22.508 18.204L22.5992 18.163ZM23.6252 18.163L23.7155 18.2059V18.2059L23.6252 18.163ZM23.6252 15.985L23.7155 15.9421L23.6252 15.985ZM19.1702 12.584C19.5824 12.584 19.8857 12.7455 20.0941 13.0691L20.2623 12.9609C20.0147 12.5764 19.646 12.384 19.1702 12.384V12.584ZM20.0946 13.0698C20.3076 13.395 20.4202 13.8649 20.4202 14.491H20.6202C20.6202 13.8451 20.5048 13.331 20.2619 12.9602L20.0946 13.0698ZM20.4202 14.491C20.4202 15.1171 20.3106 15.5943 20.1021 15.9325L20.2723 16.0375C20.5078 15.6557 20.6202 15.1369 20.6202 14.491H20.4202ZM20.1019 15.9329C19.9064 16.2533 19.6021 16.416 19.1702 16.416V16.616C19.6623 16.616 20.0361 16.4247 20.2726 16.0371L20.1019 15.9329ZM19.1702 16.416C18.9088 16.416 18.6918 16.3415 18.5135 16.1956L18.3869 16.3504C18.6046 16.5285 18.8677 16.616 19.1702 16.616V16.416ZM18.5135 16.1956C18.3331 16.048 18.1923 15.8343 18.0949 15.5478L17.9055 15.6122C18.0121 15.9257 18.1713 16.174 18.3869 16.3504L18.5135 16.1956ZM18.0956 15.5501C18.0034 15.2562 17.9562 14.9038 17.9562 14.491H17.7562C17.7562 14.9182 17.805 15.2918 17.9048 15.6099L18.0956 15.5501ZM17.9562 14.491C17.9562 13.8638 18.0601 13.3926 18.2568 13.0667L18.0856 12.9633C17.8623 13.3334 17.7562 13.8462 17.7562 14.491H17.9562ZM18.2572 13.066C18.447 12.7461 18.7449 12.584 19.1702 12.584V12.384C18.6835 12.384 18.3154 12.5759 18.0852 12.964L18.2572 13.066ZM19.1702 12.942C19.0371 12.942 18.9169 12.9783 18.8141 13.0536C18.7124 13.1281 18.6337 13.2363 18.5747 13.3708L18.7578 13.4512C18.8067 13.3397 18.866 13.2634 18.9323 13.2149C18.9975 13.1672 19.0753 13.142 19.1702 13.142V12.942ZM18.5742 13.3719C18.4642 13.6307 18.4132 14.007 18.4132 14.491H18.6132C18.6132 14.015 18.6642 13.6713 18.7582 13.4501L18.5742 13.3719ZM18.4132 14.491C18.4132 14.9753 18.4643 15.354 18.5738 15.6183L18.7586 15.5417C18.6642 15.314 18.6132 14.9667 18.6132 14.491H18.4132ZM18.5747 15.6202C18.6337 15.7547 18.7124 15.8629 18.8141 15.9374C18.9169 16.0127 19.0371 16.049 19.1702 16.049V15.849C19.0753 15.849 18.9975 15.8238 18.9323 15.7761C18.866 15.7276 18.8067 15.6513 18.7578 15.5398L18.5747 15.6202ZM19.1702 16.049C19.3052 16.049 19.4275 16.0141 19.533 15.9413C19.6377 15.8691 19.7199 15.7637 19.7825 15.6319L19.6019 15.5461C19.5505 15.6543 19.4887 15.7289 19.4194 15.7767C19.3509 15.8239 19.2692 15.849 19.1702 15.849V16.049ZM19.7829 15.631C19.9061 15.3652 19.9632 14.9818 19.9632 14.491H19.7632C19.7632 14.9722 19.7063 15.3208 19.6015 15.547L19.7829 15.631ZM19.9632 14.491C19.9632 14.0063 19.9062 13.6283 19.7825 13.3681L19.6019 13.4539C19.7063 13.6737 19.7632 14.0157 19.7632 14.491H19.9632ZM19.7829 13.369C19.7206 13.2343 19.6386 13.1266 19.5339 13.0526C19.4284 12.978 19.3058 12.942 19.1702 12.942V13.142C19.2687 13.142 19.35 13.1675 19.4185 13.2159C19.4878 13.2649 19.5499 13.3417 19.6015 13.453L19.7829 13.369ZM23.1958 12.5255L19.6318 18.9515L19.8067 19.0485L23.3707 12.6225L23.1958 12.5255ZM19.7192 18.9H19.0262V19.1H19.7192V18.9ZM19.1137 19.0485L22.6777 12.6225L22.5028 12.5255L18.9388 18.9515L19.1137 19.0485ZM22.5902 12.674H23.2832V12.474H22.5902V12.674ZM23.1032 15.158C23.3778 15.158 23.6004 15.2332 23.7779 15.3784L23.9045 15.2236C23.6861 15.0448 23.4167 14.958 23.1032 14.958V15.158ZM23.7793 15.3795C23.9587 15.5209 24.0992 15.7308 24.1965 16.0172L24.3859 15.9528C24.2793 15.6392 24.1198 15.3931 23.9031 15.2225L23.7793 15.3795ZM24.1973 16.0195C24.3001 16.2993 24.3532 16.6468 24.3532 17.065H24.5532C24.5532 16.6312 24.4983 16.2587 24.3851 15.9505L24.1973 16.0195ZM24.3532 17.065C24.3532 17.6911 24.2436 18.1683 24.0351 18.5065L24.2053 18.6115C24.4408 18.2297 24.5532 17.7109 24.5532 17.065H24.3532ZM24.0349 18.5069C23.8394 18.8273 23.5351 18.99 23.1032 18.99V19.19C23.5953 19.19 23.9691 18.9987 24.2056 18.6111L24.0349 18.5069ZM23.1032 18.99C22.8418 18.99 22.6248 18.9155 22.4465 18.7696L22.3199 18.9244C22.5376 19.1025 22.8006 19.19 23.1032 19.19V18.99ZM22.4465 18.7696C22.2661 18.622 22.1253 18.4083 22.0279 18.1218L21.8385 18.1862C21.9451 18.4997 22.1043 18.748 22.3199 18.9244L22.4465 18.7696ZM22.0286 18.1241C21.9364 17.8302 21.8892 17.4778 21.8892 17.065H21.6892C21.6892 17.4922 21.738 17.8658 21.8378 18.1839L22.0286 18.1241ZM21.8892 17.065C21.8892 16.4378 21.9931 15.9666 22.1898 15.6407L22.0186 15.5373C21.7953 15.9074 21.6892 16.4202 21.6892 17.065H21.8892ZM22.1902 15.64C22.38 15.3201 22.6779 15.158 23.1032 15.158V14.958C22.6165 14.958 22.2484 15.1499 22.0182 15.538L22.1902 15.64ZM23.1032 15.525C22.9707 15.525 22.8508 15.5603 22.7481 15.6336C22.6463 15.7064 22.5673 15.8122 22.508 15.944L22.6904 16.026C22.7391 15.9178 22.7982 15.8436 22.8643 15.7964C22.9296 15.7497 23.0078 15.725 23.1032 15.725V15.525ZM22.5072 15.9459C22.3972 16.2047 22.3462 16.581 22.3462 17.065H22.5462C22.5462 16.589 22.5972 16.2453 22.6912 16.0241L22.5072 15.9459ZM22.3462 17.065C22.3462 17.5551 22.3972 17.9369 22.5068 18.2013L22.6916 18.1247C22.5972 17.8971 22.5462 17.5469 22.5462 17.065H22.3462ZM22.508 18.204C22.5673 18.3358 22.6463 18.4416 22.7481 18.5144C22.8508 18.5877 22.9707 18.623 23.1032 18.623V18.423C23.0078 18.423 22.9296 18.3983 22.8643 18.3516C22.7982 18.3044 22.7391 18.2302 22.6904 18.122L22.508 18.204ZM23.1032 18.623C23.2382 18.623 23.3605 18.5881 23.466 18.5153C23.5707 18.4431 23.6529 18.3377 23.7155 18.2059L23.5349 18.1201C23.4835 18.2283 23.4217 18.3029 23.3524 18.3507C23.2839 18.3979 23.2022 18.423 23.1032 18.423V18.623ZM23.7155 18.2059C23.8393 17.9454 23.8962 17.5613 23.8962 17.065H23.6962C23.6962 17.5527 23.6392 17.9006 23.5349 18.1201L23.7155 18.2059ZM23.8962 17.065C23.8962 16.5803 23.8392 16.2023 23.7155 15.9421L23.5349 16.0279C23.6393 16.2477 23.6962 16.5897 23.6962 17.065H23.8962ZM23.7155 15.9421C23.6529 15.8103 23.5707 15.7049 23.466 15.6327C23.3605 15.5599 23.2382 15.525 23.1032 15.525V15.725C23.2022 15.725 23.2839 15.7501 23.3524 15.7973C23.4217 15.8451 23.4835 15.9197 23.5349 16.0279L23.7155 15.9421Z" fill="#060606"/>
<defs>
<filter id="filter0_i_1_1826" x="13.9937" y="0.117188" width="18.0063" height="32.8828" filterUnits="userSpaceOnUse" color-interpolation-filters="sRGB">
<feFlood flood-opacity="0" result="BackgroundImageFix"/>
<feBlend mode="normal" in="SourceGraphic" in2="BackgroundImageFix" result="shape"/>
<feColorMatrix in="SourceAlpha" type="matrix" values="0 0 0 0 0 0 0 0 0 0 0 0 0 0 0 0 0 0 127 0" result="hardAlpha"/>
<feOffset dy="3"/>
<feGaussianBlur stdDeviation="0.5"/>
<feComposite in2="hardAlpha" operator="arithmetic" k2="-1" k3="1"/>
<feColorMatrix type="matrix" values="0 0 0 0 1 0 0 0 0 1 0 0 0 0 1 0 0 0 0.25 0"/>
<feBlend mode="normal" in2="shape" result="effect1_innerShadow_1_1826"/>
</filter>
</defs>
</svg>
