<svg width="32" height="32" viewBox="0 0 32 32" fill="none" xmlns="http://www.w3.org/2000/svg">
<path d="M32 16C32 24.8366 24.8366 32 16 32C7.16344 32 0 24.8366 0 16C0 7.16344 7.16344 0 16 0C24.8366 0 32 7.16344 32 16ZM4.16 16C4.16 22.5391 9.46095 27.84 16 27.84C22.5391 27.84 27.84 22.5391 27.84 16C27.84 9.46095 22.5391 4.16 16 4.16C9.46095 4.16 4.16 9.46095 4.16 16Z" fill="black" fill-opacity="0.08"/>
<g filter="url(#filter0_i_1_1806)">
<path d="M2.72396 20.1849C1.62835 20.5302 1.00804 21.7062 1.49252 22.7478C2.26401 24.4065 3.3165 25.9254 4.60824 27.2351C6.38838 29.0401 8.57194 30.3962 10.979 31.1918C13.386 31.9873 15.9477 32.1995 18.4528 31.8109C20.958 31.4222 23.3349 30.4439 25.3878 28.9564C27.4407 27.469 29.1107 25.515 30.2603 23.2556C31.4099 20.9961 32.0062 18.4958 32 15.9607C31.9937 13.4256 31.3852 10.9282 30.2245 8.67445C29.3823 7.03901 28.2668 5.56578 26.9309 4.31603C26.092 3.53122 24.7813 3.75436 24.1119 4.6879C23.4425 5.62143 23.6731 6.90992 24.4752 7.73222C25.2938 8.57131 25.9859 9.53011 26.5261 10.5791C27.385 12.2469 27.8354 14.0949 27.84 15.9709C27.8446 17.8469 27.4033 19.6971 26.5526 21.3691C25.7019 23.0411 24.4661 24.4871 22.947 25.5878C21.4278 26.6885 19.6689 27.4125 17.8151 27.7C15.9613 27.9876 14.0657 27.8306 12.2845 27.2419C10.5032 26.6532 8.8874 25.6497 7.5701 24.314C6.74157 23.4739 6.04605 22.5176 5.50366 21.4784C4.97213 20.46 3.81957 19.8395 2.72396 20.1849Z" fill="#EE201C"/>
</g>
<path d="M8.00487 18.01C7.68987 17.461 7.50987 16.705 7.50987 15.877C7.50987 13.897 8.40087 12.646 9.90387 12.646C11.0469 12.646 11.8299 13.33 11.9829 14.383H11.2269C11.0829 13.744 10.6329 13.312 9.86787 13.312C8.76987 13.312 8.16687 14.311 8.16687 15.733C8.16687 15.823 8.16687 15.886 8.17587 16.039C8.18487 16.003 8.19387 15.949 8.22987 15.868C8.50887 15.247 9.13887 14.833 9.98487 14.833C11.2269 14.833 12.0999 15.652 12.0999 16.939C12.0999 18.154 11.2089 19.054 9.91287 19.054C9.03987 19.054 8.40087 18.658 8.00487 18.01ZM11.3439 16.939C11.3439 16.102 10.8039 15.499 9.93087 15.499C9.05787 15.499 8.46387 16.093 8.46387 16.957C8.46387 17.803 9.03987 18.388 9.90387 18.388C10.7769 18.388 11.3439 17.785 11.3439 16.939ZM15.959 15.742C16.661 15.904 17.219 16.444 17.219 17.308C17.219 18.325 16.346 19.054 14.924 19.054C13.502 19.054 12.629 18.325 12.629 17.308C12.629 16.453 13.178 15.904 13.889 15.742C13.286 15.607 12.809 15.076 12.809 14.32C12.809 13.33 13.637 12.646 14.924 12.646C16.211 12.646 17.039 13.33 17.039 14.32C17.039 15.04 16.571 15.607 15.959 15.742ZM13.583 14.32C13.583 14.941 14.114 15.355 14.924 15.355C15.734 15.355 16.265 14.941 16.265 14.32C16.265 13.708 15.734 13.294 14.924 13.294C14.114 13.294 13.583 13.708 13.583 14.32ZM14.924 18.406C15.824 18.406 16.445 17.929 16.445 17.254C16.445 16.588 15.824 16.111 14.924 16.111C14.024 16.111 13.403 16.588 13.403 17.254C13.403 17.929 14.033 18.406 14.924 18.406ZM19.1526 12.484C19.5966 12.484 19.9326 12.661 20.1606 13.015C20.3886 13.363 20.5026 13.855 20.5026 14.491C20.5026 15.127 20.3916 15.625 20.1696 15.985C19.9536 16.339 19.6146 16.516 19.1526 16.516C18.8706 16.516 18.6306 16.435 18.4326 16.273C18.2346 16.111 18.0846 15.88 17.9826 15.58C17.8866 15.274 17.8386 14.911 17.8386 14.491C17.8386 13.855 17.9436 13.363 18.1536 13.015C18.3636 12.661 18.6966 12.484 19.1526 12.484ZM19.1526 13.042C18.9246 13.042 18.7566 13.165 18.6486 13.411C18.5466 13.651 18.4956 14.011 18.4956 14.491C18.4956 14.971 18.5466 15.334 18.6486 15.58C18.7566 15.826 18.9246 15.949 19.1526 15.949C19.3866 15.949 19.5606 15.829 19.6746 15.589C19.7886 15.343 19.8456 14.977 19.8456 14.491C19.8456 14.011 19.7886 13.651 19.6746 13.411C19.5606 13.165 19.3866 13.042 19.1526 13.042ZM23.2656 12.574L19.7016 19H19.0086L22.5726 12.574H23.2656ZM23.0856 15.058C23.3796 15.058 23.6256 15.139 23.8236 15.301C24.0216 15.457 24.1716 15.685 24.2736 15.985C24.3816 16.279 24.4356 16.639 24.4356 17.065C24.4356 17.701 24.3246 18.199 24.1026 18.559C23.8866 18.913 23.5476 19.09 23.0856 19.09C22.8036 19.09 22.5636 19.009 22.3656 18.847C22.1676 18.685 22.0176 18.454 21.9156 18.154C21.8196 17.848 21.7716 17.485 21.7716 17.065C21.7716 16.429 21.8766 15.937 22.0866 15.589C22.2966 15.235 22.6296 15.058 23.0856 15.058ZM23.0856 15.625C22.8576 15.625 22.6896 15.745 22.5816 15.985C22.4796 16.225 22.4286 16.585 22.4286 17.065C22.4286 17.551 22.4796 17.917 22.5816 18.163C22.6896 18.403 22.8576 18.523 23.0856 18.523C23.3196 18.523 23.4936 18.403 23.6076 18.163C23.7216 17.923 23.7786 17.557 23.7786 17.065C23.7786 16.585 23.7216 16.225 23.6076 15.985C23.4936 15.745 23.3196 15.625 23.0856 15.625Z" fill="#060606"/>
<path d="M8.00487 18.01L7.9181 18.0598L7.91954 18.0621L8.00487 18.01ZM11.9829 14.383V14.483H12.0985L12.0818 14.3686L11.9829 14.383ZM11.2269 14.383L11.1293 14.405L11.1469 14.483H11.2269V14.383ZM8.17587 16.039L8.07604 16.0449L8.27289 16.0633L8.17587 16.039ZM8.22987 15.868L8.13865 15.827L8.13849 15.8274L8.22987 15.868ZM8.09161 17.9602C7.7873 17.4299 7.60987 16.6921 7.60987 15.877H7.40987C7.40987 16.7179 7.59244 17.4921 7.91813 18.0598L8.09161 17.9602ZM7.60987 15.877C7.60987 14.9004 7.82982 14.1158 8.2239 13.5781C8.61539 13.044 9.18372 12.746 9.90387 12.746V12.546C9.12102 12.546 8.49235 12.8735 8.06259 13.4599C7.63542 14.0427 7.40987 14.8736 7.40987 15.877H7.60987ZM9.90387 12.746C10.4551 12.746 10.9127 12.9106 11.25 13.196C11.5872 13.4812 11.8105 13.8924 11.8839 14.3974L12.0818 14.3686C12.0022 13.8206 11.7575 13.3633 11.3792 13.0433C11.001 12.7234 10.4957 12.546 9.90387 12.546V12.746ZM11.9829 14.283H11.2269V14.483H11.9829V14.283ZM11.3244 14.361C11.2486 14.0245 11.0905 13.7356 10.8442 13.531C10.5973 13.3259 10.2699 13.212 9.86787 13.212V13.412C10.2308 13.412 10.5109 13.5141 10.7163 13.6848C10.9223 13.8559 11.0612 14.1025 11.1293 14.405L11.3244 14.361ZM9.86787 13.212C9.28362 13.212 8.82813 13.48 8.52269 13.9334C8.21995 14.3827 8.06687 15.0097 8.06687 15.733H8.26687C8.26687 15.0343 8.41529 14.4508 8.68856 14.0451C8.95911 13.6435 9.35413 13.412 9.86787 13.412V13.212ZM8.06687 15.733C8.06687 15.8242 8.06689 15.8893 8.07604 16.0449L8.2757 16.0331C8.26685 15.8827 8.26687 15.8218 8.26687 15.733H8.06687ZM8.27289 16.0633C8.28303 16.0227 8.28971 15.9796 8.32125 15.9086L8.13849 15.8274C8.09803 15.9184 8.08672 15.9833 8.07886 16.0147L8.27289 16.0633ZM8.32109 15.909C8.58215 15.3279 9.17365 14.933 9.98487 14.933V14.733C9.10409 14.733 8.43559 15.1661 8.13865 15.827L8.32109 15.909ZM9.98487 14.933C10.5836 14.933 11.086 15.1301 11.4382 15.4748C11.7901 15.8193 11.9999 16.3189 11.9999 16.939H12.1999C12.1999 16.2721 11.9732 15.7187 11.5781 15.3319C11.1833 14.9454 10.6281 14.733 9.98487 14.733V14.933ZM11.9999 16.939C11.9999 18.0968 11.1556 18.954 9.91287 18.954V19.154C11.2621 19.154 12.1999 18.2112 12.1999 16.939H11.9999ZM9.91287 18.954C9.07523 18.954 8.46831 18.5766 8.0902 17.9579L7.91954 18.0621C8.33343 18.7394 9.00451 19.154 9.91287 19.154V18.954ZM11.4439 16.939C11.4439 16.4989 11.3016 16.1128 11.037 15.836C10.7719 15.5586 10.3914 15.399 9.93087 15.399V15.599C10.3434 15.599 10.6694 15.7409 10.8925 15.9742C11.1161 16.2082 11.2439 16.5421 11.2439 16.939H11.4439ZM9.93087 15.399C9.47114 15.399 9.07797 15.5558 8.79944 15.8331C8.52089 16.1105 8.36387 16.5015 8.36387 16.957H8.56387C8.56387 16.5485 8.70385 16.2105 8.94055 15.9749C9.17727 15.7392 9.5176 15.599 9.93087 15.599V15.399ZM8.36387 16.957C8.36387 17.4032 8.5162 17.7875 8.78916 18.0605C9.06217 18.3335 9.44872 18.488 9.90387 18.488V18.288C9.49502 18.288 9.16157 18.15 8.93058 17.919C8.69955 17.688 8.56387 17.3568 8.56387 16.957H8.36387ZM9.90387 18.488C10.3642 18.488 10.751 18.3285 11.0227 18.0507C11.2942 17.7731 11.4439 17.3847 11.4439 16.939H11.2439C11.2439 17.3393 11.1101 17.6754 10.8798 17.9108C10.6497 18.146 10.3165 18.288 9.90387 18.288V18.488ZM15.959 15.742L15.9375 15.6443L15.9366 15.8394L15.959 15.742ZM13.889 15.742L13.9113 15.8395L13.9109 15.6444L13.889 15.742ZM15.9366 15.8394C16.6 15.9925 17.119 16.4972 17.119 17.308H17.319C17.319 16.3908 16.7221 15.8155 15.9815 15.6446L15.9366 15.8394ZM17.119 17.308C17.119 17.7852 16.9154 18.1928 16.5432 18.4836C16.1691 18.7759 15.6189 18.954 14.924 18.954V19.154C15.6512 19.154 16.2485 18.9676 16.6664 18.6412C17.0862 18.3132 17.319 17.8478 17.319 17.308H17.119ZM14.924 18.954C14.2292 18.954 13.679 18.7759 13.3049 18.4836C12.9327 18.1928 12.729 17.7852 12.729 17.308H12.529C12.529 17.8478 12.7619 18.3132 13.1817 18.6412C13.5996 18.9676 14.1969 19.154 14.924 19.154V18.954ZM12.729 17.308C12.729 16.5054 13.24 15.9925 13.9113 15.8395L13.8668 15.6445C13.1161 15.8155 12.529 16.4006 12.529 17.308H12.729ZM13.9109 15.6444C13.3539 15.5197 12.909 15.0296 12.909 14.32H12.709C12.709 15.1224 13.2181 15.6943 13.8672 15.8396L13.9109 15.6444ZM12.909 14.32C12.909 13.8554 13.1022 13.4656 13.4464 13.1898C13.7925 12.9125 14.2974 12.746 14.924 12.746V12.546C14.2637 12.546 13.7111 12.7215 13.3214 13.0337C12.9299 13.3474 12.709 13.7946 12.709 14.32H12.909ZM14.924 12.746C15.5507 12.746 16.0556 12.9125 16.4016 13.1898C16.7459 13.4656 16.939 13.8554 16.939 14.32H17.139C17.139 13.7946 16.9182 13.3474 16.5267 13.0337C16.137 12.7215 15.5844 12.546 14.924 12.546V12.746ZM16.939 14.32C16.939 14.9957 16.5011 15.52 15.9375 15.6443L15.9806 15.8397C16.641 15.694 17.139 15.0843 17.139 14.32H16.939ZM13.483 14.32C13.483 14.662 13.6305 14.9497 13.8886 15.1495C14.1444 15.3475 14.503 15.455 14.924 15.455V15.255C14.535 15.255 14.2232 15.1555 14.011 14.9913C13.801 14.8288 13.683 14.599 13.683 14.32H13.483ZM14.924 15.455C15.345 15.455 15.7037 15.3475 15.9595 15.1495C16.2175 14.9497 16.365 14.662 16.365 14.32H16.165C16.165 14.599 16.047 14.8288 15.8371 14.9913C15.6249 15.1555 15.313 15.255 14.924 15.255V15.455ZM16.365 14.32C16.365 13.9821 16.2172 13.6966 15.9593 13.4982C15.7035 13.3015 15.3451 13.194 14.924 13.194V13.394C15.313 13.394 15.6251 13.4935 15.8373 13.6568C16.0474 13.8184 16.165 14.0459 16.165 14.32H16.365ZM14.924 13.194C14.503 13.194 14.1446 13.3015 13.8888 13.4982C13.6309 13.6966 13.483 13.9821 13.483 14.32H13.683C13.683 14.0459 13.8007 13.8184 14.0108 13.6568C14.223 13.4935 14.5351 13.394 14.924 13.394V13.194ZM14.924 18.506C15.3908 18.506 15.7938 18.3824 16.0826 18.1627C16.3731 17.9418 16.545 17.6253 16.545 17.254H16.345C16.345 17.5577 16.2065 17.8172 15.9615 18.0035C15.7148 18.1911 15.3573 18.306 14.924 18.306V18.506ZM16.545 17.254C16.545 16.8868 16.3727 16.5726 16.0824 16.353C15.7936 16.1346 15.3908 16.011 14.924 16.011V16.211C15.3573 16.211 15.7149 16.3259 15.9617 16.5125C16.2069 16.6979 16.345 16.9552 16.345 17.254H16.545ZM14.924 16.011C14.4573 16.011 14.0544 16.1346 13.7657 16.353C13.4754 16.5726 13.303 16.8868 13.303 17.254H13.503C13.503 16.9552 13.6412 16.6979 13.8864 16.5125C14.1331 16.3259 14.4908 16.211 14.924 16.211V16.011ZM13.303 17.254C13.303 18.0083 14.0054 18.506 14.924 18.506V18.306C14.0607 18.306 13.503 17.8497 13.503 17.254H13.303ZM20.1606 13.015L20.0766 13.0691L20.077 13.0698L20.1606 13.015ZM20.1696 15.985L20.0845 15.9325L20.0843 15.9329L20.1696 15.985ZM18.4326 16.273L18.3693 16.3504L18.4326 16.273ZM17.9826 15.58L17.8872 15.6099L17.888 15.6122L17.9826 15.58ZM18.1536 13.015L18.2393 13.0667L18.2396 13.066L18.1536 13.015ZM18.6486 13.411L18.5571 13.3708L18.5566 13.3719L18.6486 13.411ZM18.6486 15.58L18.5562 15.6183L18.5571 15.6202L18.6486 15.58ZM19.6746 15.589L19.765 15.6319L19.7654 15.631L19.6746 15.589ZM19.6746 13.411L19.5839 13.453L19.5843 13.4539L19.6746 13.411ZM23.2656 12.574L23.3531 12.6225L23.4354 12.474H23.2656V12.574ZM19.7016 19V19.1H19.7605L19.7891 19.0485L19.7016 19ZM19.0086 19L18.9212 18.9515L18.8388 19.1H19.0086V19ZM22.5726 12.574V12.474H22.5138L22.4852 12.5255L22.5726 12.574ZM23.8236 15.301L23.7603 15.3784L23.7618 15.3795L23.8236 15.301ZM24.2736 15.985L24.1789 16.0172L24.1798 16.0195L24.2736 15.985ZM24.1026 18.559L24.0175 18.5065L24.0173 18.5069L24.1026 18.559ZM22.3656 18.847L22.3023 18.9244L22.3656 18.847ZM21.9156 18.154L21.8202 18.1839L21.821 18.1862L21.9156 18.154ZM22.0866 15.589L22.1723 15.6407L22.1726 15.64L22.0866 15.589ZM22.5816 15.985L22.4904 15.944L22.4896 15.9459L22.5816 15.985ZM22.5816 18.163L22.4892 18.2013L22.4904 18.204L22.5816 18.163ZM23.6076 18.163L23.698 18.2059V18.2059L23.6076 18.163ZM23.6076 15.985L23.698 15.9421L23.6076 15.985ZM19.1526 12.584C19.5649 12.584 19.8681 12.7455 20.0766 13.0691L20.2447 12.9609C19.9971 12.5764 19.6284 12.384 19.1526 12.384V12.584ZM20.077 13.0698C20.2901 13.395 20.4026 13.8649 20.4026 14.491H20.6026C20.6026 13.8451 20.4872 13.331 20.2443 12.9602L20.077 13.0698ZM20.4026 14.491C20.4026 15.1171 20.2931 15.5943 20.0845 15.9325L20.2548 16.0375C20.4902 15.6557 20.6026 15.1369 20.6026 14.491H20.4026ZM20.0843 15.9329C19.8888 16.2533 19.5845 16.416 19.1526 16.416V16.616C19.6447 16.616 20.0185 16.4247 20.255 16.0371L20.0843 15.9329ZM19.1526 16.416C18.8912 16.416 18.6742 16.3415 18.496 16.1956L18.3693 16.3504C18.587 16.5285 18.8501 16.616 19.1526 16.616V16.416ZM18.496 16.1956C18.3155 16.048 18.1747 15.8343 18.0773 15.5478L17.888 15.6122C17.9945 15.9257 18.1537 16.174 18.3693 16.3504L18.496 16.1956ZM18.0781 15.5501C17.9859 15.2562 17.9386 14.9038 17.9386 14.491H17.7386C17.7386 14.9182 17.7874 15.2918 17.8872 15.6099L18.0781 15.5501ZM17.9386 14.491C17.9386 13.8638 18.0426 13.3926 18.2393 13.0667L18.068 12.9633C17.8447 13.3334 17.7386 13.8462 17.7386 14.491H17.9386ZM18.2396 13.066C18.4294 12.7461 18.7274 12.584 19.1526 12.584V12.384C18.6659 12.384 18.2979 12.5759 18.0676 12.964L18.2396 13.066ZM19.1526 12.942C19.0195 12.942 18.8993 12.9783 18.7966 13.0536C18.6948 13.1281 18.6161 13.2363 18.5571 13.3708L18.7402 13.4512C18.7891 13.3397 18.8485 13.2634 18.9147 13.2149C18.9799 13.1672 19.0578 13.142 19.1526 13.142V12.942ZM18.5566 13.3719C18.4466 13.6307 18.3956 14.007 18.3956 14.491H18.5956C18.5956 14.015 18.6467 13.6713 18.7407 13.4501L18.5566 13.3719ZM18.3956 14.491C18.3956 14.9753 18.4467 15.354 18.5563 15.6183L18.741 15.5417C18.6466 15.314 18.5956 14.9667 18.5956 14.491H18.3956ZM18.5571 15.6202C18.6161 15.7547 18.6948 15.8629 18.7966 15.9374C18.8993 16.0127 19.0195 16.049 19.1526 16.049V15.849C19.0578 15.849 18.9799 15.8238 18.9147 15.7761C18.8485 15.7276 18.7891 15.6513 18.7402 15.5398L18.5571 15.6202ZM19.1526 16.049C19.2877 16.049 19.4099 16.0141 19.5154 15.9413C19.6201 15.8691 19.7023 15.7637 19.765 15.6319L19.5843 15.5461C19.5329 15.6543 19.4711 15.7289 19.4019 15.7767C19.3333 15.8239 19.2516 15.849 19.1526 15.849V16.049ZM19.7654 15.631C19.8886 15.3652 19.9456 14.9818 19.9456 14.491H19.7456C19.7456 14.9722 19.6887 15.3208 19.5839 15.547L19.7654 15.631ZM19.9456 14.491C19.9456 14.0063 19.8886 13.6283 19.765 13.3681L19.5843 13.4539C19.6887 13.6737 19.7456 14.0157 19.7456 14.491H19.9456ZM19.7654 13.369C19.703 13.2343 19.621 13.1266 19.5164 13.0526C19.4108 12.978 19.2882 12.942 19.1526 12.942V13.142C19.2511 13.142 19.3325 13.1675 19.4009 13.2159C19.4703 13.2649 19.5323 13.3417 19.5839 13.453L19.7654 13.369ZM23.1782 12.5255L19.6142 18.9515L19.7891 19.0485L23.3531 12.6225L23.1782 12.5255ZM19.7016 18.9H19.0086V19.1H19.7016V18.9ZM19.0961 19.0485L22.6601 12.6225L22.4852 12.5255L18.9212 18.9515L19.0961 19.0485ZM22.5726 12.674H23.2656V12.474H22.5726V12.674ZM23.0856 15.158C23.3602 15.158 23.5828 15.2332 23.7603 15.3784L23.887 15.2236C23.6685 15.0448 23.3991 14.958 23.0856 14.958V15.158ZM23.7618 15.3795C23.9411 15.5209 24.0816 15.7308 24.179 16.0172L24.3683 15.9528C24.2617 15.6392 24.1022 15.3931 23.8855 15.2225L23.7618 15.3795ZM24.1798 16.0195C24.2825 16.2993 24.3356 16.6468 24.3356 17.065H24.5356C24.5356 16.6312 24.4807 16.2587 24.3675 15.9505L24.1798 16.0195ZM24.3356 17.065C24.3356 17.6911 24.2261 18.1683 24.0175 18.5065L24.1878 18.6115C24.4232 18.2297 24.5356 17.7109 24.5356 17.065H24.3356ZM24.0173 18.5069C23.8218 18.8273 23.5175 18.99 23.0856 18.99V19.19C23.5777 19.19 23.9515 18.9987 24.188 18.6111L24.0173 18.5069ZM23.0856 18.99C22.8242 18.99 22.6072 18.9155 22.429 18.7696L22.3023 18.9244C22.52 19.1025 22.7831 19.19 23.0856 19.19V18.99ZM22.429 18.7696C22.2485 18.622 22.1077 18.4083 22.0103 18.1218L21.821 18.1862C21.9275 18.4997 22.0867 18.748 22.3023 18.9244L22.429 18.7696ZM22.0111 18.1241C21.9189 17.8302 21.8716 17.4778 21.8716 17.065H21.6716C21.6716 17.4922 21.7204 17.8658 21.8202 18.1839L22.0111 18.1241ZM21.8716 17.065C21.8716 16.4378 21.9756 15.9666 22.1723 15.6407L22.001 15.5373C21.7777 15.9074 21.6716 16.4202 21.6716 17.065H21.8716ZM22.1726 15.64C22.3624 15.3201 22.6604 15.158 23.0856 15.158V14.958C22.5989 14.958 22.2309 15.1499 22.0006 15.538L22.1726 15.64ZM23.0856 15.525C22.9531 15.525 22.8332 15.5603 22.7305 15.6336C22.6287 15.7064 22.5497 15.8122 22.4904 15.944L22.6728 16.026C22.7215 15.9178 22.7806 15.8436 22.8468 15.7964C22.912 15.7497 22.9902 15.725 23.0856 15.725V15.525ZM22.4896 15.9459C22.3796 16.2047 22.3286 16.581 22.3286 17.065H22.5286C22.5286 16.589 22.5797 16.2453 22.6737 16.0241L22.4896 15.9459ZM22.3286 17.065C22.3286 17.5551 22.3796 17.9369 22.4893 18.2013L22.674 18.1247C22.5796 17.8971 22.5286 17.5469 22.5286 17.065H22.3286ZM22.4904 18.204C22.5497 18.3358 22.6287 18.4416 22.7305 18.5144C22.8332 18.5877 22.9531 18.623 23.0856 18.623V18.423C22.9902 18.423 22.912 18.3983 22.8468 18.3516C22.7806 18.3044 22.7215 18.2302 22.6728 18.122L22.4904 18.204ZM23.0856 18.623C23.2207 18.623 23.3429 18.5881 23.4484 18.5153C23.5531 18.4431 23.6353 18.3377 23.698 18.2059L23.5173 18.1201C23.4659 18.2283 23.4041 18.3029 23.3349 18.3507C23.2663 18.3979 23.1846 18.423 23.0856 18.423V18.623ZM23.698 18.2059C23.8217 17.9454 23.8786 17.5613 23.8786 17.065H23.6786C23.6786 17.5527 23.6216 17.9006 23.5173 18.1201L23.698 18.2059ZM23.8786 17.065C23.8786 16.5803 23.8216 16.2023 23.698 15.9421L23.5173 16.0279C23.6217 16.2477 23.6786 16.5897 23.6786 17.065H23.8786ZM23.698 15.9421C23.6353 15.8103 23.5531 15.7049 23.4484 15.6327C23.3429 15.5599 23.2207 15.525 23.0856 15.525V15.725C23.1846 15.725 23.2663 15.7501 23.3349 15.7973C23.4041 15.8451 23.4659 15.9197 23.5173 16.0279L23.698 15.9421Z" fill="#060606"/>
<defs>
<filter id="filter0_i_1_1806" x="1.32568" y="3.83838" width="30.6743" height="29.1616" filterUnits="userSpaceOnUse" color-interpolation-filters="sRGB">
<feFlood flood-opacity="0" result="BackgroundImageFix"/>
<feBlend mode="normal" in="SourceGraphic" in2="BackgroundImageFix" result="shape"/>
<feColorMatrix in="SourceAlpha" type="matrix" values="0 0 0 0 0 0 0 0 0 0 0 0 0 0 0 0 0 0 127 0" result="hardAlpha"/>
<feOffset dy="3"/>
<feGaussianBlur stdDeviation="0.5"/>
<feComposite in2="hardAlpha" operator="arithmetic" k2="-1" k3="1"/>
<feColorMatrix type="matrix" values="0 0 0 0 1 0 0 0 0 1 0 0 0 0 1 0 0 0 0.25 0"/>
<feBlend mode="normal" in2="shape" result="effect1_innerShadow_1_1806"/>
</filter>
</defs>
</svg>
