<svg width="22" height="22" viewBox="0 0 22 22" fill="none" xmlns="http://www.w3.org/2000/svg">
<path fill-rule="evenodd" clip-rule="evenodd" d="M13.0344 2.03462C13.6671 1.40188 14.5604 1.14575 15.583 1.14575H17.4163C18.439 1.14575 19.3322 1.40188 19.965 2.03462C20.5977 2.66735 20.8538 3.56061 20.8538 4.58325V6.41658C20.8538 7.43923 20.5977 8.33248 19.965 8.96522C19.3322 9.59796 18.439 9.85408 17.4163 9.85408H15.583C14.5604 9.85408 13.6671 9.59796 13.0344 8.96522C12.4016 8.33248 12.1455 7.43923 12.1455 6.41658V4.58325C12.1455 3.56061 12.4016 2.66735 13.0344 2.03462ZM14.0066 3.00689C13.7227 3.29082 13.5205 3.77256 13.5205 4.58325V6.41658C13.5205 7.22728 13.7227 7.70902 14.0066 7.99295C14.2906 8.27688 14.7723 8.47908 15.583 8.47908H17.4163C18.227 8.47908 18.7088 8.27688 18.9927 7.99295C19.2766 7.70902 19.4788 7.22728 19.4788 6.41658V4.58325C19.4788 3.77256 19.2766 3.29082 18.9927 3.00689C18.7088 2.72296 18.227 2.52075 17.4163 2.52075H15.583C14.7723 2.52075 14.2906 2.72296 14.0066 3.00689Z" fill="#E65F2B"/>
<path fill-rule="evenodd" clip-rule="evenodd" d="M2.03437 13.0346C2.66711 12.4019 3.56037 12.1458 4.58301 12.1458H6.41634C7.43898 12.1458 8.33224 12.4019 8.96498 13.0346C9.59772 13.6674 9.85384 14.5606 9.85384 15.5833V17.4166C9.85384 18.4392 9.59772 19.3325 8.96498 19.9652C8.33224 20.598 7.43898 20.8541 6.41634 20.8541H4.58301C3.56037 20.8541 2.66711 20.598 2.03437 19.9652C1.40163 19.3325 1.14551 18.4392 1.14551 17.4166V15.5833C1.14551 14.5606 1.40163 13.6674 2.03437 13.0346ZM3.00664 14.0069C2.72272 14.2908 2.52051 14.7726 2.52051 15.5833V17.4166C2.52051 18.2273 2.72272 18.709 3.00664 18.9929C3.29057 19.2769 3.77232 19.4791 4.58301 19.4791H6.41634C7.22703 19.4791 7.70878 19.2769 7.9927 18.9929C8.27663 18.709 8.47884 18.2273 8.47884 17.4166V15.5833C8.47884 14.7726 8.27663 14.2908 7.9927 14.0069C7.70878 13.723 7.22703 13.5208 6.41634 13.5208H4.58301C3.77232 13.5208 3.29057 13.723 3.00664 14.0069Z" fill="#E65F2B"/>
<path fill-rule="evenodd" clip-rule="evenodd" d="M5.49967 2.52075C3.85433 2.52075 2.52051 3.85457 2.52051 5.49992C2.52051 7.14527 3.85433 8.47908 5.49967 8.47908C7.14502 8.47908 8.47884 7.14527 8.47884 5.49992C8.47884 3.85457 7.14502 2.52075 5.49967 2.52075ZM1.14551 5.49992C1.14551 3.09518 3.09493 1.14575 5.49967 1.14575C7.90441 1.14575 9.85384 3.09518 9.85384 5.49992C9.85384 7.90466 7.90441 9.85408 5.49967 9.85408C3.09493 9.85408 1.14551 7.90466 1.14551 5.49992Z" fill="#E65F2B"/>
<path fill-rule="evenodd" clip-rule="evenodd" d="M16.4997 13.5208C14.8543 13.5208 13.5205 14.8546 13.5205 16.4999C13.5205 18.1453 14.8543 19.4791 16.4997 19.4791C18.145 19.4791 19.4788 18.1453 19.4788 16.4999C19.4788 14.8546 18.145 13.5208 16.4997 13.5208ZM12.1455 16.4999C12.1455 14.0952 14.0949 12.1458 16.4997 12.1458C18.9044 12.1458 20.8538 14.0952 20.8538 16.4999C20.8538 18.9047 18.9044 20.8541 16.4997 20.8541C14.0949 20.8541 12.1455 18.9047 12.1455 16.4999Z" fill="#E65F2B"/>
</svg>
