<svg width="22" height="22" viewBox="0 0 22 22" fill="none" xmlns="http://www.w3.org/2000/svg">
<path fill-rule="evenodd" clip-rule="evenodd" d="M4.37155 4.37203C5.38856 3.35502 6.89821 2.979 8.79935 2.979H13.1993C15.1005 2.979 16.6101 3.35502 17.6272 4.37203C18.6442 5.38905 19.0202 6.8987 19.0202 8.79984C19.0202 9.17953 18.7124 9.48734 18.3327 9.48734C17.953 9.48734 17.6452 9.17953 17.6452 8.79984C17.6452 7.03431 17.2879 5.97729 16.6549 5.34431C16.0219 4.71132 14.9649 4.354 13.1993 4.354H8.79935C7.03382 4.354 5.97681 4.71132 5.34382 5.34431C4.71083 5.97729 4.35352 7.03431 4.35352 8.79984V13.1998C4.35352 14.9654 4.71083 16.0224 5.34382 16.6554C5.97681 17.2884 7.03382 17.6457 8.79935 17.6457C9.17904 17.6457 9.48685 17.9535 9.48685 18.3332C9.48685 18.7129 9.17904 19.0207 8.79935 19.0207C6.89821 19.0207 5.38856 18.6447 4.37155 17.6276C3.35453 16.6106 2.97852 15.101 2.97852 13.1998V8.79984C2.97852 6.8987 3.35453 5.38905 4.37155 4.37203Z" fill="#F1F1F1"/>
<path fill-rule="evenodd" clip-rule="evenodd" d="M6.67467 6.67516C7.38231 5.96752 8.41071 5.729 9.62435 5.729H12.3743C13.7128 5.729 14.8267 6.01657 15.5274 6.90842C15.762 7.20698 15.7102 7.63918 15.4116 7.87376C15.113 8.10835 14.6808 8.05648 14.4463 7.75792C14.1387 7.36644 13.5659 7.104 12.3743 7.104H9.62435C8.54632 7.104 7.97056 7.32382 7.64694 7.64743C7.32333 7.97104 7.10352 8.54681 7.10352 9.62484V12.3748C7.10352 13.5666 7.3661 14.1421 7.75204 14.4497C8.04895 14.6864 8.09779 15.119 7.86112 15.4159C7.62445 15.7128 7.1919 15.7616 6.89499 15.5249C6.01593 14.8242 5.72852 13.7131 5.72852 12.3748V9.62484C5.72852 8.4112 5.96703 7.3828 6.67467 6.67516Z" fill="#F1F1F1"/>
<path fill-rule="evenodd" clip-rule="evenodd" d="M7.3418 1.14575C7.72149 1.14575 8.0293 1.45356 8.0293 1.83325V3.66659C8.0293 4.04628 7.72149 4.35409 7.3418 4.35409C6.9621 4.35409 6.6543 4.04628 6.6543 3.66659V1.83325C6.6543 1.45356 6.9621 1.14575 7.3418 1.14575Z" fill="#F1F1F1"/>
<path fill-rule="evenodd" clip-rule="evenodd" d="M11 1.14575C11.3797 1.14575 11.6875 1.45356 11.6875 1.83325V3.66659C11.6875 4.04628 11.3797 4.35409 11 4.35409C10.6203 4.35409 10.3125 4.04628 10.3125 3.66659V1.83325C10.3125 1.45356 10.6203 1.14575 11 1.14575Z" fill="#F1F1F1"/>
<path fill-rule="evenodd" clip-rule="evenodd" d="M14.666 1.14575C15.0457 1.14575 15.3535 1.45356 15.3535 1.83325V3.66659C15.3535 4.04628 15.0457 4.35409 14.666 4.35409C14.2863 4.35409 13.9785 4.04628 13.9785 3.66659V1.83325C13.9785 1.45356 14.2863 1.14575 14.666 1.14575Z" fill="#F1F1F1"/>
<path fill-rule="evenodd" clip-rule="evenodd" d="M17.6455 7.33325C17.6455 6.95356 17.9533 6.64575 18.333 6.64575H20.1663C20.546 6.64575 20.8538 6.95356 20.8538 7.33325C20.8538 7.71295 20.546 8.02075 20.1663 8.02075H18.333C17.9533 8.02075 17.6455 7.71295 17.6455 7.33325Z" fill="#F1F1F1"/>
<path fill-rule="evenodd" clip-rule="evenodd" d="M7.3418 17.6458C7.72149 17.6458 8.0293 17.9536 8.0293 18.3333V20.1666C8.0293 20.5463 7.72149 20.8541 7.3418 20.8541C6.9621 20.8541 6.6543 20.5463 6.6543 20.1666V18.3333C6.6543 17.9536 6.9621 17.6458 7.3418 17.6458Z" fill="#F1F1F1"/>
<path fill-rule="evenodd" clip-rule="evenodd" d="M1.14551 7.33325C1.14551 6.95356 1.45331 6.64575 1.83301 6.64575H3.66634C4.04604 6.64575 4.35384 6.95356 4.35384 7.33325C4.35384 7.71295 4.04604 8.02075 3.66634 8.02075H1.83301C1.45331 8.02075 1.14551 7.71295 1.14551 7.33325Z" fill="#F1F1F1"/>
<path fill-rule="evenodd" clip-rule="evenodd" d="M1.14551 11C1.14551 10.6203 1.45331 10.3125 1.83301 10.3125H3.66634C4.04604 10.3125 4.35384 10.6203 4.35384 11C4.35384 11.3797 4.04604 11.6875 3.66634 11.6875H1.83301C1.45331 11.6875 1.14551 11.3797 1.14551 11Z" fill="#F1F1F1"/>
<path fill-rule="evenodd" clip-rule="evenodd" d="M1.14551 14.6665C1.14551 14.2868 1.45331 13.979 1.83301 13.979H3.66634C4.04604 13.979 4.35384 14.2868 4.35384 14.6665C4.35384 15.0462 4.04604 15.354 3.66634 15.354H1.83301C1.45331 15.354 1.14551 15.0462 1.14551 14.6665Z" fill="#F1F1F1"/>
<path fill-rule="evenodd" clip-rule="evenodd" d="M15.3169 14.8132C14.8916 14.8132 14.5469 15.158 14.5469 15.5832C14.5469 16.0085 14.8916 16.3532 15.3169 16.3532C15.7421 16.3532 16.0869 16.0085 16.0869 15.5832C16.0869 15.158 15.7421 14.8132 15.3169 14.8132ZM13.1719 15.5832C13.1719 14.3986 14.1322 13.4382 15.3169 13.4382C16.5015 13.4382 17.4619 14.3986 17.4619 15.5832C17.4619 16.7679 16.5015 17.7282 15.3169 17.7282C14.1322 17.7282 13.1719 16.7679 13.1719 15.5832Z" fill="#F1F1F1"/>
<path fill-rule="evenodd" clip-rule="evenodd" d="M13.8649 11.7549C13.8207 11.6805 13.7415 11.6748 13.6981 11.7006L13.6925 11.704L12.8494 12.195C12.7442 12.2541 12.7036 12.3965 12.767 12.5051L12.7683 12.5074C13.0617 13.0147 13.1745 13.6345 12.8653 14.1718C12.5559 14.7097 11.9628 14.9232 11.3757 14.9232C11.2512 14.9232 11.1465 15.0279 11.1465 15.1524V16.0049C11.1465 16.1456 11.2553 16.2361 11.3632 16.2342L11.3757 16.2339C11.9628 16.2339 12.5559 16.4476 12.8653 16.9855C13.1745 17.5228 13.0617 18.1426 12.7683 18.6499L12.767 18.6521C12.7075 18.7541 12.7366 18.8963 12.8584 18.9675C12.8583 18.9675 12.8585 18.9676 12.8584 18.9675L13.689 19.4513C13.7487 19.4843 13.828 19.4644 13.8649 19.4024L13.8661 19.4003L13.9185 19.313C14.2117 18.809 14.6904 18.4043 15.3082 18.4043C15.9259 18.4043 16.4046 18.809 16.6978 19.313L16.7514 19.4024C16.7956 19.4767 16.8748 19.4824 16.9182 19.4566L16.9238 19.4533L17.7669 18.9623C17.8721 18.9031 17.9127 18.7607 17.8493 18.6521L17.848 18.6499C17.5546 18.1426 17.4418 17.5228 17.751 16.9855C18.0604 16.4476 18.6535 16.234 19.2407 16.234C19.3651 16.234 19.4698 16.1294 19.4698 16.0049V15.1524C19.4698 15.0279 19.3651 14.9232 19.2407 14.9232C18.6535 14.9232 18.0604 14.7097 17.751 14.1718C17.4418 13.6345 17.5546 13.0147 17.848 12.5074L17.8493 12.5051C17.9088 12.4031 17.8797 12.2609 17.7577 12.1896C17.7577 12.1896 17.7578 12.1897 17.7577 12.1896L16.9273 11.706C16.8676 11.6729 16.7883 11.6929 16.7514 11.7549L16.7502 11.7569L16.6978 11.8442C16.4046 12.3483 15.9259 12.753 15.3082 12.753C14.6904 12.753 14.2117 12.3483 13.9185 11.8442L13.8649 11.7549ZM15.0457 11.0504C14.6319 10.3566 13.7238 10.0876 12.9981 10.5172L12.1702 10.9994C11.3997 11.4365 11.1306 12.4271 11.5785 13.1966C11.6783 13.3694 11.6765 13.4578 11.6719 13.4851C11.6505 13.5028 11.5749 13.5482 11.3757 13.5482C10.4918 13.5482 9.77148 14.2685 9.77148 15.1524V16.0049C9.77148 16.8883 10.4835 17.6211 11.3804 17.6091C11.5761 17.6098 11.6506 17.6546 11.6719 17.6721C11.6765 17.6994 11.6783 17.7878 11.5785 17.9606C11.1258 18.7383 11.4084 19.7135 12.1659 20.1554L13.0005 20.6415L13.0054 20.6443C13.7152 21.0499 14.6243 20.8135 15.0457 20.1069C15.0459 20.1065 15.0462 20.1061 15.0464 20.1057L15.1002 20.0161L15.1058 20.0066C15.205 19.835 15.2817 19.7915 15.3082 19.7813C15.3346 19.7915 15.4113 19.835 15.5105 20.0066L15.5699 20.1057C15.5701 20.1061 15.5704 20.1065 15.5706 20.1069C15.9844 20.8006 16.8925 21.0696 17.6182 20.6401L18.4461 20.1579C19.2166 19.7208 19.4857 18.7302 19.0378 17.9607C18.938 17.7878 18.9398 17.6994 18.9444 17.6721C18.9658 17.6544 19.0414 17.609 19.2407 17.609C20.1245 17.609 20.8448 16.8887 20.8448 16.0049V15.1524C20.8448 14.2685 20.1245 13.5482 19.2407 13.5482C19.0414 13.5482 18.9658 13.5028 18.9444 13.4851C18.9398 13.4578 18.938 13.3694 19.0378 13.1965C19.4904 12.4188 19.2079 11.4437 18.4504 11.0019L17.6158 10.5158L17.6109 10.513C16.9011 10.1074 15.992 10.3438 15.5706 11.0504C15.5703 11.0508 15.5701 11.0512 15.5699 11.0516L15.5161 11.1412L15.5105 11.1507C15.4113 11.3222 15.3346 11.3658 15.3082 11.376C15.2817 11.3658 15.205 11.3222 15.1058 11.1507L15.0464 11.0516C15.0462 11.0512 15.046 11.0508 15.0457 11.0504Z" fill="#F1F1F1"/>
</svg>
