<svg width="30" height="30" viewBox="0 0 30 30" fill="none" xmlns="http://www.w3.org/2000/svg">
<path d="M12.2656 11.8778C12.4859 11.2517 12.9206 10.7238 13.4928 10.3875C14.065 10.0512 14.7377 9.92825 15.3919 10.0405C16.046 10.1527 16.6394 10.4928 17.0668 11.0005C17.4942 11.5083 17.7282 12.1509 17.7272 12.8146C17.7272 14.6882 14.9168 15.625 14.9168 15.625M14.9512 19.375H14.9637M26.25 15C26.25 21.2132 21.2132 26.25 15 26.25C8.7868 26.25 3.75 21.2132 3.75 15C3.75 8.7868 8.7868 3.75 15 3.75C21.2132 3.75 26.25 8.7868 26.25 15Z" stroke="white" stroke-width="1.5" stroke-linecap="round" stroke-linejoin="round"/>
</svg>
