<svg width="22" height="22" viewBox="0 0 22 22" fill="none" xmlns="http://www.w3.org/2000/svg">
<path fill-rule="evenodd" clip-rule="evenodd" d="M10.9997 2.52075C6.31937 2.52075 2.52051 6.31961 2.52051 10.9999C2.52051 15.6802 6.31937 19.4791 10.9997 19.4791C15.68 19.4791 19.4788 15.6802 19.4788 10.9999C19.4788 6.31961 15.68 2.52075 10.9997 2.52075ZM1.14551 10.9999C1.14551 5.56022 5.55998 1.14575 10.9997 1.14575C16.4394 1.14575 20.8538 5.56022 20.8538 10.9999C20.8538 16.4396 16.4394 20.8541 10.9997 20.8541C5.55998 20.8541 1.14551 16.4396 1.14551 10.9999Z" fill="#F1F1F1"/>
<path fill-rule="evenodd" clip-rule="evenodd" d="M10.6602 6.19653C11.0399 6.19653 11.3477 6.50434 11.3477 6.88403V10.6424C11.3477 10.7831 11.4014 10.9871 11.5209 11.1967C11.6404 11.4063 11.7886 11.5562 11.909 11.6276L11.9108 11.6287L11.9108 11.6287L14.7525 13.3245C15.0785 13.5191 15.1851 13.9411 14.9905 14.2672C14.7959 14.5932 14.3739 14.6998 14.0478 14.5052L11.208 12.8105C11.2077 12.8103 11.2074 12.8101 11.207 12.8099C10.8329 12.5879 10.5322 12.2386 10.3265 11.8778C10.1206 11.5168 9.97266 11.0791 9.97266 10.6424V6.88403C9.97266 6.50434 10.2805 6.19653 10.6602 6.19653Z" fill="#F1F1F1"/>
</svg>
