<svg width="348" height="178" viewBox="0 0 348 178" fill="none" xmlns="http://www.w3.org/2000/svg">
<path d="M316.54 174C319.832 174 322.512 171.33 322.381 168.041C321.679 150.508 317.885 133.221 311.158 116.98C303.67 98.9027 292.695 82.477 278.859 68.6411C265.023 54.8052 248.597 43.8299 230.52 36.3419C212.442 28.854 193.067 25 173.5 25C153.933 25 134.558 28.854 116.48 36.342C98.4026 43.8299 81.977 54.8052 68.1411 68.6411C54.3052 82.477 43.3299 98.9027 35.8419 116.98C29.115 133.221 25.3209 150.508 24.6192 168.041C24.4876 171.33 27.1684 174 30.46 174V174C33.7516 174 36.4065 171.33 36.5495 168.042C37.2442 152.075 40.7267 136.336 46.8546 121.542C53.7435 104.91 63.8407 89.7989 76.5698 77.0698C89.2988 64.3408 104.41 54.2435 121.042 47.3546C137.673 40.4657 155.498 36.92 173.5 36.92C191.502 36.92 209.327 40.4657 225.958 47.3546C242.59 54.2435 257.701 64.3407 270.43 77.0698C283.159 89.7989 293.256 104.91 300.145 121.542C306.273 136.336 309.756 152.075 310.45 168.042C310.594 171.33 313.248 174 316.54 174V174Z" fill="black" fill-opacity="0.08"/>
<g filter="url(#filter0_i_1_1841)">
<path d="M101.28 50.5304C99.6182 47.6892 95.9602 46.7231 93.1877 48.4973C73.0096 61.4096 56.2159 79.0151 44.2642 99.8441C32.3124 120.673 25.587 144.056 24.6212 167.992C24.4884 171.281 27.1684 173.952 30.46 173.953V173.953C33.7516 173.954 36.4074 171.285 36.5515 167.996C37.5095 146.141 43.6867 124.801 54.603 105.777C65.5193 86.7521 80.8262 70.6506 99.2115 58.7952C101.978 57.0113 102.942 53.3717 101.28 50.5304V50.5304Z" fill="#1A932E"/>
</g>
<path d="M0.782311 162.289L14.562 163.274" stroke="#060606" stroke-opacity="0.3" stroke-miterlimit="10"/>
<path d="M1.60611 153.56L15.3203 155.246" stroke="#060606" stroke-opacity="0.3" stroke-miterlimit="10"/>
<path d="M2.87717 144.885L16.48 147.26" stroke="#060606" stroke-opacity="0.3" stroke-miterlimit="10"/>
<path d="M4.57419 136.282L18.0425 139.358" stroke="#060606" stroke-opacity="0.3" stroke-miterlimit="10"/>
<path d="M6.71994 127.788L20.0195 131.53" stroke="#060606" stroke-opacity="0.3" stroke-miterlimit="10"/>
<path d="M9.29045 119.402L22.3867 123.821" stroke="#060606" stroke-opacity="0.3" stroke-miterlimit="10"/>
<path d="M12.2929 111.159L25.1284 116.242" stroke="#060606" stroke-opacity="0.3" stroke-miterlimit="10"/>
<path d="M15.7025 103.082L28.2773 108.819" stroke="#060606" stroke-opacity="0.3" stroke-miterlimit="10"/>
<path d="M19.5204 95.1926L31.7773 101.559" stroke="#060606" stroke-opacity="0.3" stroke-miterlimit="10"/>
<path d="M23.7401 87.5046L35.6562 94.4885" stroke="#060606" stroke-opacity="0.3" stroke-miterlimit="10"/>
<path d="M28.3381 80.039L39.8906 87.6174" stroke="#060606" stroke-opacity="0.3" stroke-miterlimit="10"/>
<path d="M33.3102 72.8197L44.4648 80.9807" stroke="#060606" stroke-opacity="0.3" stroke-miterlimit="10"/>
<path d="M38.6486 65.8697L49.3711 74.5784" stroke="#060606" stroke-opacity="0.3" stroke-miterlimit="10"/>
<path d="M44.3417 59.1894L54.5977 68.4338" stroke="#060606" stroke-opacity="0.3" stroke-miterlimit="10"/>
<path d="M50.3546 52.8095L60.1328 62.5667" stroke="#060606" stroke-opacity="0.3" stroke-miterlimit="10"/>
<path d="M56.6865 46.7461L65.9526 56.9924" stroke="#060606" stroke-opacity="0.3" stroke-miterlimit="10"/>
<path d="M63.3232 41.0202L72.0547 51.7209" stroke="#060606" stroke-opacity="0.3" stroke-miterlimit="10"/>
<path d="M70.2439 35.6301L78.418 46.762" stroke="#060606" stroke-opacity="0.3" stroke-miterlimit="10"/>
<path d="M92.5176 21.6766L98.9062 33.928" stroke="#060606" stroke-opacity="0.3" stroke-miterlimit="10"/>
<path d="M100.388 17.8046L106.14 30.3596" stroke="#060606" stroke-opacity="0.3" stroke-miterlimit="10"/>
<path d="M108.438 14.3387L113.542 27.1741" stroke="#060606" stroke-opacity="0.3" stroke-miterlimit="10"/>
<path d="M116.66 11.2784L121.105 24.3596" stroke="#060606" stroke-opacity="0.3" stroke-miterlimit="10"/>
<path d="M125.021 8.65489L128.797 21.9358" stroke="#060606" stroke-opacity="0.3" stroke-miterlimit="10"/>
<path d="M133.507 6.4491L136.602 19.9065" stroke="#060606" stroke-opacity="0.3" stroke-miterlimit="10"/>
<path d="M142.094 4.68035L144.496 18.2795" stroke="#060606" stroke-opacity="0.3" stroke-miterlimit="10"/>
<path d="M150.766 3.35243L152.465 17.0588" stroke="#060606" stroke-opacity="0.3" stroke-miterlimit="10"/>
<path d="M159.489 2.47109L160.496 16.2502" stroke="#060606" stroke-opacity="0.3" stroke-miterlimit="10"/>
<path d="M168.242 2.02848L168.547 15.8342" stroke="#060606" stroke-opacity="0.3" stroke-miterlimit="10"/>
<path d="M177.015 2.03583L176.606 15.845" stroke="#060606" stroke-opacity="0.3" stroke-miterlimit="10"/>
<path d="M185.768 2.49223L184.657 16.259" stroke="#060606" stroke-opacity="0.3" stroke-miterlimit="10"/>
<path d="M194.486 3.39723L192.686 17.0871" stroke="#060606" stroke-opacity="0.3" stroke-miterlimit="10"/>
<path d="M203.15 4.73734L200.66 18.3274" stroke="#060606" stroke-opacity="0.3" stroke-miterlimit="10"/>
<path d="M211.742 6.51612L208.551 19.9601" stroke="#060606" stroke-opacity="0.3" stroke-miterlimit="10"/>
<path d="M220.22 8.74126L216.352 21.9934" stroke="#060606" stroke-opacity="0.3" stroke-miterlimit="10"/>
<path d="M228.585 11.3784L224.04 24.4271" stroke="#060606" stroke-opacity="0.3" stroke-miterlimit="10"/>
<path d="M236.793 14.4541L231.595 27.2537" stroke="#060606" stroke-opacity="0.3" stroke-miterlimit="10"/>
<path d="M244.845 17.9393L238.994 30.4553" stroke="#060606" stroke-opacity="0.3" stroke-miterlimit="10"/>
<path d="M252.697 21.8282L246.228 34.0264" stroke="#060606" stroke-opacity="0.3" stroke-miterlimit="10"/>
<path d="M260.349 26.1053L253.262 37.9627" stroke="#060606" stroke-opacity="0.3" stroke-miterlimit="10"/>
<path d="M281.855 41.2204L273.044 51.8611" stroke="#060606" stroke-opacity="0.3" stroke-miterlimit="10"/>
<path d="M288.479 46.9581L279.143 57.1324" stroke="#060606" stroke-opacity="0.3" stroke-miterlimit="10"/>
<path d="M294.798 53.0392L284.961 62.7244" stroke="#060606" stroke-opacity="0.3" stroke-miterlimit="10"/>
<path d="M300.804 59.4265L290.478 68.5996" stroke="#060606" stroke-opacity="0.3" stroke-miterlimit="10"/>
<path d="M306.485 66.1102L295.705 74.7487" stroke="#060606" stroke-opacity="0.3" stroke-miterlimit="10"/>
<path d="M311.807 73.0766L300.607 81.1463" stroke="#060606" stroke-opacity="0.3" stroke-miterlimit="10"/>
<path d="M316.765 80.3044L305.169 87.7941" stroke="#060606" stroke-opacity="0.3" stroke-miterlimit="10"/>
<path d="M321.356 87.7703L309.387 94.6687" stroke="#060606" stroke-opacity="0.3" stroke-miterlimit="10"/>
<path d="M325.564 95.472L313.257 101.745" stroke="#060606" stroke-opacity="0.3" stroke-miterlimit="10"/>
<path d="M329.366 103.367L316.754 109.015" stroke="#060606" stroke-opacity="0.3" stroke-miterlimit="10"/>
<path d="M332.761 111.451L319.88 116.439" stroke="#060606" stroke-opacity="0.3" stroke-miterlimit="10"/>
<path d="M335.741 119.704L322.627 124.023" stroke="#060606" stroke-opacity="0.3" stroke-miterlimit="10"/>
<path d="M338.304 128.091L324.979 131.739" stroke="#060606" stroke-opacity="0.3" stroke-miterlimit="10"/>
<path d="M340.433 136.586L326.943 139.565" stroke="#060606" stroke-opacity="0.3" stroke-miterlimit="10"/>
<path d="M342.117 145.193L328.496 147.48" stroke="#060606" stroke-opacity="0.3" stroke-miterlimit="10"/>
<path d="M343.367 153.876L329.65 155.459" stroke="#060606" stroke-opacity="0.3" stroke-miterlimit="10"/>
<path d="M344.179 162.599L330.39 163.491" stroke="#060606" stroke-opacity="0.3" stroke-miterlimit="10"/>
<path d="M7.492 174.484L7.108 174.484C4.72 174.484 3.028 173.188 3.028 171.292C3.028 169.408 4.72 168.112 7.108 168.112L7.492 168.112C10 168.112 11.572 169.408 11.572 171.292C11.572 173.188 10 174.484 7.492 174.484ZM7.456 169.132L7.144 169.132C5.152 169.132 3.952 169.996 3.952 171.292C3.952 172.6 5.152 173.464 7.144 173.464L7.456 173.464C9.448 173.464 10.648 172.6 10.648 171.292C10.648 169.996 9.448 169.132 7.456 169.132Z" fill="black"/>
<path d="M330.504 167.512V166.6H331.488V175H330.48V168.976C330.36 169.084 330.168 169.132 329.904 169.132H328.548V168.232H329.916C330.312 168.232 330.504 167.932 330.504 167.512ZM332.956 170.992V170.608C332.956 168.22 334.252 166.528 336.148 166.528C338.032 166.528 339.328 168.22 339.328 170.608V170.992C339.328 173.5 338.032 175.072 336.148 175.072C334.252 175.072 332.956 173.5 332.956 170.992ZM338.308 170.956V170.644C338.308 168.652 337.444 167.452 336.148 167.452C334.84 167.452 333.976 168.652 333.976 170.644V170.956C333.976 172.948 334.84 174.148 336.148 174.148C337.444 174.148 338.308 172.948 338.308 170.956ZM340.483 170.992V170.608C340.483 168.22 341.779 166.528 343.675 166.528C345.559 166.528 346.855 168.22 346.855 170.608V170.992C346.855 173.5 345.559 175.072 343.675 175.072C341.779 175.072 340.483 173.5 340.483 170.992ZM345.835 170.956V170.644C345.835 168.652 344.971 167.452 343.675 167.452C342.367 167.452 341.503 168.652 341.503 170.644V170.956C341.503 172.948 342.367 174.148 343.675 174.148C344.971 174.148 345.835 172.948 345.835 170.956Z" fill="black"/>
<path d="M81.3934 40.2918L80.9544 39.5616L82.2929 35.4528C82.6152 34.475 82.8367 33.5857 82.3669 32.8041C81.8229 31.899 80.8966 31.7557 79.9401 32.3307C79.0145 32.8871 78.7684 33.8751 79.3618 34.8624L79.4422 34.9962L78.5783 35.5155L78.467 35.3303C77.6509 33.9727 78.0263 32.431 79.4765 31.5593C81.0295 30.6258 82.4477 30.9354 83.2267 32.2313C83.8758 33.3112 83.5845 34.4104 83.1698 35.6537L82.1104 38.7827L85.8747 36.52L86.3507 37.312L81.3934 40.2918ZM87.0114 30.3483C88.4204 29.5013 89.991 29.9014 90.8503 31.331C91.8086 32.9251 91.1554 34.4938 89.8081 35.3037C88.2036 36.2682 86.6536 35.7858 85.8274 34.5743L86.681 34.0612C87.264 34.8448 88.3056 35.1568 89.3444 34.5323C90.1878 34.0254 90.6397 32.9837 89.972 31.8729C89.3847 30.8959 88.3431 30.5839 87.3455 31.1836C86.9032 31.4494 86.0929 32.1045 86.2975 33.1436L85.452 33.6238L83.228 29.3882L87.5374 26.7979L88.0134 27.5898L84.496 29.7041L85.6977 32.076C85.8247 31.2856 86.3429 30.7501 87.0114 30.3483Z" fill="black"/>
<path d="M267.081 35.4897C268.491 36.3365 268.874 37.9111 268.015 39.3408C267.057 40.9352 265.366 41.0946 264.018 40.285C262.414 39.3208 262.112 37.7257 262.794 36.4275L263.648 36.9405C263.229 37.8231 263.443 38.8893 264.482 39.5135C265.325 40.0203 266.457 39.9305 267.125 38.8196C267.712 37.8424 267.498 36.7762 266.501 36.1767C266.058 35.911 265.1 35.5029 264.278 36.1712L263.457 35.65L266.154 31.6983L270.463 34.288L269.988 35.08L266.47 32.9663L264.939 35.1406C265.697 34.8818 266.413 35.088 267.081 35.4897ZM269.501 38.8336L269.699 38.5044C270.929 36.4575 272.911 35.6747 274.536 36.6512C276.151 37.6215 276.391 39.7394 275.161 41.7863L274.963 42.1154C273.671 44.2652 271.751 44.9452 270.136 43.9748C268.511 42.9983 268.209 40.9834 269.501 38.8336ZM274.107 41.5592L274.268 41.2918C275.294 39.5843 275.171 38.1107 274.06 37.4432C272.939 36.7696 271.581 37.3532 270.555 39.0606L270.394 39.3281C269.368 41.0356 269.491 42.5092 270.612 43.1828C271.723 43.8503 273.081 43.2667 274.107 41.5592Z" fill="black"/>
<g filter="url(#filter1_di_1_1841)">
<path d="M231.823 43.3905C233.165 40.385 231.821 36.8486 228.764 35.6277C207.522 27.1437 184.584 23.6544 161.728 25.4657C138.873 27.2771 116.771 34.3359 97.1301 46.06C94.3038 47.7471 93.533 51.4512 95.3318 54.2078V54.2078C97.1306 56.9645 100.817 57.7288 103.65 56.0515C121.616 45.4112 141.802 39.0023 162.67 37.3485C183.538 35.6946 204.481 38.844 223.9 46.5214C226.961 47.7316 230.481 46.3961 231.823 43.3905V43.3905Z" fill="#E5AE21"/>
</g>
<g filter="url(#filter2_di_1_1841)">
<path d="M313.785 146.063C317.013 145.42 319.121 142.278 318.35 139.078C312.972 116.772 302.508 95.9811 287.743 78.3472C272.979 60.7132 254.351 46.7576 233.337 37.5431C230.323 36.2212 226.859 37.7439 225.659 40.8089V40.8089C224.459 43.8739 225.977 47.3195 228.987 48.6518C248.141 57.1305 265.123 69.8983 278.604 85.9994C292.085 102.1 301.669 121.062 306.649 141.408C307.432 144.606 310.557 146.706 313.785 146.063V146.063Z" fill="#E65F2B"/>
</g>
<path d="M146.696 124.556V122.4H160.528V124.052L150.896 142H148.348L157.952 124.556H146.696ZM161.724 142V140.012L169.34 133.404C171.16 131.836 172.672 130.324 172.672 128.196C172.672 125.732 170.992 124.332 168.388 124.332C165.868 124.332 164.188 126.012 164.188 128.7V129.064H161.836V128.56C161.836 124.864 164.44 122.232 168.388 122.232C172.616 122.232 175.08 124.556 175.08 128.084C175.08 131.024 173.176 132.872 170.852 134.86L164.972 139.844H175.22V142H161.724ZM181.832 121.728C183.214 121.728 184.259 122.279 184.968 123.38C185.678 124.463 186.033 125.993 186.033 127.972C186.033 129.951 185.687 131.5 184.997 132.62C184.325 133.721 183.27 134.272 181.832 134.272C180.955 134.272 180.208 134.02 179.592 133.516C178.976 133.012 178.51 132.293 178.192 131.36C177.894 130.408 177.744 129.279 177.744 127.972C177.744 125.993 178.071 124.463 178.724 123.38C179.378 122.279 180.414 121.728 181.832 121.728ZM181.832 123.464C181.123 123.464 180.6 123.847 180.264 124.612C179.947 125.359 179.788 126.479 179.788 127.972C179.788 129.465 179.947 130.595 180.264 131.36C180.6 132.125 181.123 132.508 181.832 132.508C182.56 132.508 183.102 132.135 183.457 131.388C183.811 130.623 183.988 129.484 183.988 127.972C183.988 126.479 183.811 125.359 183.457 124.612C183.102 123.847 182.56 123.464 181.832 123.464ZM194.628 122.008L183.54 142H181.384L192.473 122.008H194.628ZM194.069 129.736C194.983 129.736 195.749 129.988 196.365 130.492C196.981 130.977 197.447 131.687 197.765 132.62C198.101 133.535 198.269 134.655 198.269 135.98C198.269 137.959 197.923 139.508 197.233 140.628C196.561 141.729 195.506 142.28 194.069 142.28C193.191 142.28 192.445 142.028 191.829 141.524C191.213 141.02 190.746 140.301 190.429 139.368C190.13 138.416 189.981 137.287 189.981 135.98C189.981 134.001 190.307 132.471 190.961 131.388C191.614 130.287 192.65 129.736 194.069 129.736ZM194.069 131.5C193.359 131.5 192.837 131.873 192.501 132.62C192.183 133.367 192.024 134.487 192.024 135.98C192.024 137.492 192.183 138.631 192.501 139.396C192.837 140.143 193.359 140.516 194.069 140.516C194.796 140.516 195.338 140.143 195.693 139.396C196.047 138.649 196.225 137.511 196.225 135.98C196.225 134.487 196.047 133.367 195.693 132.62C195.338 131.873 194.796 131.5 194.069 131.5Z" fill="#060606"/>
<path d="M146.696 124.556H146.446V124.806H146.696V124.556ZM146.696 122.4V122.15H146.446V122.4H146.696ZM160.528 122.4H160.778V122.15H160.528V122.4ZM160.528 124.052L160.748 124.17L160.778 124.115V124.052H160.528ZM150.896 142V142.25H151.046L151.116 142.118L150.896 142ZM148.348 142L148.129 141.879L147.925 142.25H148.348V142ZM157.952 124.556L158.171 124.677L158.375 124.306H157.952V124.556ZM146.946 124.556V122.4H146.446V124.556H146.946ZM146.696 122.65H160.528V122.15H146.696V122.65ZM160.278 122.4V124.052H160.778V122.4H160.278ZM160.308 123.934L150.676 141.882L151.116 142.118L160.748 124.17L160.308 123.934ZM150.896 141.75H148.348V142.25H150.896V141.75ZM148.567 142.121L158.171 124.677L157.733 124.435L148.129 141.879L148.567 142.121ZM157.952 124.306H146.696V124.806H157.952V124.306ZM161.724 142H161.474V142.25H161.724V142ZM161.724 140.012L161.56 139.823L161.474 139.898V140.012H161.724ZM169.34 133.404L169.177 133.215L169.176 133.215L169.34 133.404ZM164.188 129.064V129.314H164.438V129.064H164.188ZM161.836 129.064H161.586V129.314H161.836V129.064ZM170.852 134.86L171.014 135.051L171.015 135.05L170.852 134.86ZM164.972 139.844L164.81 139.653L164.291 140.094H164.972V139.844ZM175.22 139.844H175.47V139.594H175.22V139.844ZM175.22 142V142.25H175.47V142H175.22ZM161.974 142V140.012H161.474V142H161.974ZM161.888 140.201L169.504 133.593L169.176 133.215L161.56 139.823L161.888 140.201ZM169.503 133.593C171.313 132.034 172.922 130.453 172.922 128.196H172.422C172.422 130.195 171.007 131.638 169.177 133.215L169.503 133.593ZM172.922 128.196C172.922 126.904 172.479 125.865 171.672 125.153C170.869 124.444 169.733 124.082 168.388 124.082V124.582C169.647 124.582 170.653 124.92 171.341 125.527C172.025 126.131 172.422 127.024 172.422 128.196H172.922ZM168.388 124.082C167.071 124.082 165.953 124.522 165.164 125.334C164.375 126.145 163.938 127.303 163.938 128.7H164.438C164.438 127.409 164.841 126.383 165.522 125.682C166.203 124.982 167.185 124.582 168.388 124.582V124.082ZM163.938 128.7V129.064H164.438V128.7H163.938ZM164.188 128.814H161.836V129.314H164.188V128.814ZM162.086 129.064V128.56H161.586V129.064H162.086ZM162.086 128.56C162.086 126.772 162.715 125.257 163.806 124.189C164.898 123.12 166.471 122.482 168.388 122.482V121.982C166.357 121.982 164.654 122.66 163.457 123.831C162.26 125.003 161.586 126.652 161.586 128.56H162.086ZM168.388 122.482C170.458 122.482 172.066 123.05 173.153 124.021C174.237 124.99 174.83 126.381 174.83 128.084H175.33C175.33 126.259 174.691 124.724 173.486 123.649C172.285 122.576 170.547 121.982 168.388 121.982V122.482ZM174.83 128.084C174.83 130.897 173.02 132.676 170.69 134.67L171.015 135.05C173.332 133.068 175.33 131.151 175.33 128.084H174.83ZM170.69 134.669L164.81 139.653L165.134 140.035L171.014 135.051L170.69 134.669ZM164.972 140.094H175.22V139.594H164.972V140.094ZM174.97 139.844V142H175.47V139.844H174.97ZM175.22 141.75H161.724V142.25H175.22V141.75ZM184.968 123.38L184.758 123.515L184.759 123.517L184.968 123.38ZM184.997 132.62L184.784 132.489L184.783 132.49L184.997 132.62ZM179.592 133.516L179.434 133.709L179.434 133.709L179.592 133.516ZM178.192 131.36L177.954 131.435L177.956 131.44L178.192 131.36ZM178.724 123.38L178.939 123.509L178.94 123.508L178.724 123.38ZM180.264 124.612L180.036 124.511L180.034 124.514L180.264 124.612ZM180.264 131.36L180.034 131.456L180.036 131.46L180.264 131.36ZM183.457 131.388L183.682 131.495L183.683 131.493L183.457 131.388ZM183.457 124.612L183.23 124.717L183.231 124.719L183.457 124.612ZM194.628 122.008L194.847 122.129L195.053 121.758H194.628V122.008ZM183.54 142V142.25H183.688L183.759 142.121L183.54 142ZM181.384 142L181.166 141.879L180.96 142.25H181.384V142ZM192.473 122.008V121.758H192.325L192.254 121.887L192.473 122.008ZM196.365 130.492L196.206 130.686L196.21 130.688L196.365 130.492ZM197.765 132.62L197.528 132.7L197.53 132.706L197.765 132.62ZM197.233 140.628L197.02 140.497L197.019 140.498L197.233 140.628ZM191.829 141.524L191.67 141.717L191.829 141.524ZM190.429 139.368L190.19 139.443L190.192 139.448L190.429 139.368ZM190.961 131.388L191.175 131.517L191.176 131.516L190.961 131.388ZM192.501 132.62L192.272 132.517L192.27 132.522L192.501 132.62ZM192.501 139.396L192.269 139.492L192.273 139.499L192.501 139.396ZM195.693 139.396L195.918 139.503L195.918 139.503L195.693 139.396ZM195.693 132.62L195.918 132.513L195.918 132.513L195.693 132.62ZM181.832 121.978C183.134 121.978 184.098 122.49 184.758 123.515L185.179 123.245C184.42 122.067 183.293 121.478 181.832 121.478V121.978ZM184.759 123.517C185.431 124.543 185.783 126.018 185.783 127.972H186.283C186.283 125.969 185.924 124.383 185.178 123.243L184.759 123.517ZM185.783 127.972C185.783 129.926 185.441 131.423 184.784 132.489L185.209 132.751C185.934 131.577 186.283 129.975 186.283 127.972H185.783ZM184.783 132.49C184.162 133.507 183.195 134.022 181.832 134.022V134.522C183.345 134.522 184.487 133.936 185.21 132.75L184.783 132.49ZM181.832 134.022C181.007 134.022 180.318 133.786 179.751 133.323L179.434 133.709C180.099 134.254 180.904 134.522 181.832 134.522V134.022ZM179.751 133.323C179.179 132.854 178.735 132.179 178.429 131.28L177.956 131.44C178.285 132.408 178.774 133.17 179.434 133.709L179.751 133.323ZM178.431 131.285C178.142 130.364 177.994 129.261 177.994 127.972H177.494C177.494 129.297 177.646 130.452 177.954 131.435L178.431 131.285ZM177.994 127.972C177.994 126.015 178.318 124.537 178.939 123.509L178.51 123.251C177.824 124.389 177.494 125.971 177.494 127.972H177.994ZM178.94 123.508C179.542 122.491 180.491 121.978 181.832 121.978V121.478C180.337 121.478 179.213 122.066 178.509 123.252L178.94 123.508ZM181.832 123.214C181.43 123.214 181.069 123.324 180.761 123.549C180.455 123.773 180.216 124.1 180.036 124.512L180.493 124.712C180.649 124.359 180.839 124.112 181.056 123.953C181.271 123.796 181.526 123.714 181.832 123.714V123.214ZM180.034 124.514C179.697 125.308 179.538 126.469 179.538 127.972H180.038C180.038 126.489 180.197 125.409 180.495 124.71L180.034 124.514ZM179.538 127.972C179.538 129.476 179.697 130.645 180.034 131.456L180.495 131.264C180.197 130.545 180.038 129.455 180.038 127.972H179.538ZM180.036 131.46C180.216 131.872 180.455 132.199 180.761 132.423C181.069 132.648 181.43 132.758 181.832 132.758V132.258C181.526 132.258 181.271 132.176 181.056 132.019C180.839 131.86 180.649 131.613 180.493 131.26L180.036 131.46ZM181.832 132.758C182.242 132.758 182.61 132.652 182.926 132.434C183.241 132.217 183.491 131.898 183.682 131.495L183.231 131.281C183.067 131.624 182.869 131.866 182.643 132.022C182.418 132.177 182.151 132.258 181.832 132.258V132.758ZM183.683 131.493C184.061 130.678 184.238 129.496 184.238 127.972H183.738C183.738 129.472 183.561 130.567 183.23 131.283L183.683 131.493ZM184.238 127.972C184.238 126.467 184.061 125.302 183.682 124.505L183.231 124.719C183.561 125.415 183.738 126.491 183.738 127.972H184.238ZM183.683 124.507C183.493 124.095 183.244 123.769 182.929 123.547C182.612 123.323 182.243 123.214 181.832 123.214V123.714C182.15 123.714 182.416 123.797 182.64 123.955C182.867 124.115 183.066 124.363 183.23 124.717L183.683 124.507ZM194.41 121.887L183.322 141.879L183.759 142.121L194.847 122.129L194.41 121.887ZM183.54 141.75H181.384V142.25H183.54V141.75ZM181.603 142.121L192.691 122.129L192.254 121.887L181.166 141.879L181.603 142.121ZM192.473 122.258H194.628V121.758H192.473V122.258ZM194.069 129.986C194.935 129.986 195.641 130.223 196.206 130.685L196.523 130.299C195.856 129.753 195.032 129.486 194.069 129.486V129.986ZM196.21 130.688C196.779 131.137 197.222 131.801 197.528 132.7L198.001 132.54C197.672 131.572 197.182 130.818 196.519 130.296L196.21 130.688ZM197.53 132.706C197.853 133.585 198.019 134.674 198.019 135.98H198.519C198.519 134.635 198.348 133.484 197.999 132.534L197.53 132.706ZM198.019 135.98C198.019 137.934 197.677 139.431 197.02 140.497L197.445 140.759C198.17 139.585 198.519 137.983 198.519 135.98H198.019ZM197.019 140.498C196.398 141.515 195.431 142.03 194.069 142.03V142.53C195.581 142.53 196.723 141.944 197.446 140.758L197.019 140.498ZM194.069 142.03C193.243 142.03 192.554 141.794 191.987 141.331L191.67 141.717C192.335 142.262 193.14 142.53 194.069 142.53V142.03ZM191.987 141.331C191.415 140.862 190.971 140.187 190.665 139.288L190.192 139.448C190.521 140.416 191.01 141.178 191.67 141.717L191.987 141.331ZM190.667 139.293C190.378 138.372 190.231 137.269 190.231 135.98H189.731C189.731 137.305 189.882 138.46 190.19 139.443L190.667 139.293ZM190.231 135.98C190.231 134.023 190.554 132.545 191.175 131.517L190.746 131.259C190.06 132.397 189.731 133.979 189.731 135.98H190.231ZM191.176 131.516C191.778 130.499 192.727 129.986 194.069 129.986V129.486C192.573 129.486 191.449 130.074 190.745 131.26L191.176 131.516ZM194.069 131.25C193.667 131.25 193.307 131.356 192.999 131.577C192.693 131.795 192.454 132.115 192.273 132.517L192.728 132.723C192.883 132.379 193.073 132.138 193.29 131.983C193.504 131.83 193.76 131.75 194.069 131.75V131.25ZM192.27 132.522C191.933 133.316 191.774 134.477 191.774 135.98H192.274C192.274 134.497 192.433 133.417 192.731 132.718L192.27 132.522ZM191.774 135.98C191.774 137.502 191.933 138.681 192.27 139.492L192.731 139.3C192.433 138.581 192.274 137.482 192.274 135.98H191.774ZM192.273 139.499C192.454 139.901 192.693 140.221 192.999 140.439C193.307 140.66 193.667 140.766 194.069 140.766V140.266C193.76 140.266 193.504 140.186 193.29 140.033C193.073 139.878 192.883 139.637 192.728 139.293L192.273 139.499ZM194.069 140.766C194.478 140.766 194.846 140.66 195.162 140.442C195.477 140.225 195.727 139.906 195.918 139.503L195.467 139.289C195.303 139.632 195.105 139.874 194.879 140.03C194.654 140.185 194.387 140.266 194.069 140.266V140.766ZM195.918 139.503C196.297 138.705 196.475 137.521 196.475 135.98H195.975C195.975 137.5 195.797 138.593 195.467 139.289L195.918 139.503ZM196.475 135.98C196.475 134.475 196.297 133.31 195.918 132.513L195.467 132.727C195.797 133.423 195.975 134.499 195.975 135.98H196.475ZM195.918 132.513C195.727 132.11 195.477 131.791 195.162 131.574C194.846 131.356 194.478 131.25 194.069 131.25V131.75C194.387 131.75 194.654 131.831 194.879 131.986C195.105 132.142 195.303 132.384 195.467 132.727L195.918 132.513Z" fill="#060606"/>
<path d="M143.297 149.084C140.483 149.084 138.719 147.096 138.719 144.1C138.719 141.132 140.553 139.116 143.395 139.116C145.565 139.116 147.147 140.376 147.511 142.406H146.223C145.845 141.048 144.809 140.236 143.339 140.236C141.281 140.236 139.965 141.832 139.965 144.1C139.965 146.354 141.225 147.964 143.283 147.964C144.795 147.964 145.845 147.166 146.209 145.794H147.497C147.133 147.824 145.509 149.084 143.297 149.084ZM152.23 149.084C150.144 149.084 148.688 147.6 148.688 145.43C148.688 143.26 150.144 141.776 152.23 141.776C154.316 141.776 155.772 143.26 155.772 145.43C155.772 147.6 154.316 149.084 152.23 149.084ZM152.23 148.062C153.644 148.062 154.596 146.956 154.596 145.43C154.596 143.904 153.644 142.798 152.23 142.798C150.816 142.798 149.864 143.904 149.864 145.43C149.864 146.956 150.816 148.062 152.23 148.062ZM165.195 141.776C166.679 141.776 167.897 142.63 167.897 144.884V149H166.749V144.954C166.749 143.554 166.133 142.826 165.055 142.826C163.865 142.826 163.137 143.722 163.137 145.178V149H161.989V144.954C161.989 143.554 161.359 142.826 160.267 142.826C159.091 142.826 158.377 143.806 158.377 145.234V149H157.229V141.86H158.223L158.377 142.84C158.755 142.322 159.357 141.776 160.463 141.776C161.457 141.776 162.311 142.224 162.717 143.134C163.151 142.364 163.921 141.776 165.195 141.776ZM173.107 141.776C175.081 141.776 176.537 143.106 176.537 145.43C176.537 147.614 175.081 149.084 173.107 149.084C171.903 149.084 171.091 148.594 170.657 147.908V151.8H169.509V141.86H170.503L170.657 143.008C171.133 142.35 171.903 141.776 173.107 141.776ZM172.995 148.062C174.409 148.062 175.361 146.984 175.361 145.43C175.361 143.876 174.409 142.798 172.995 142.798C171.595 142.798 170.643 143.876 170.643 145.402C170.643 146.97 171.595 148.062 172.995 148.062ZM177.989 149V139.2H179.137V149H177.989ZM184.14 149.084C181.998 149.084 180.598 147.614 180.598 145.43C180.598 143.26 181.97 141.776 183.986 141.776C186.002 141.776 187.318 143.05 187.374 145.164C187.374 145.318 187.36 145.486 187.346 145.654H181.802V145.752C181.844 147.11 182.698 148.062 184.056 148.062C185.064 148.062 185.848 147.53 186.086 146.606H187.248C186.968 148.034 185.792 149.084 184.14 149.084ZM181.872 144.702H186.142C186.03 143.47 185.19 142.784 184 142.784C182.95 142.784 181.984 143.54 181.872 144.702ZM189.274 147.138V142.91H187.986V141.86H189.274V139.858H190.422V141.86H192.27V142.91H190.422V147.124C190.422 147.726 190.632 147.95 191.248 147.95H192.382V149H191.136C189.764 149 189.274 148.398 189.274 147.138ZM196.629 149.084C194.487 149.084 193.087 147.614 193.087 145.43C193.087 143.26 194.459 141.776 196.475 141.776C198.491 141.776 199.807 143.05 199.863 145.164C199.863 145.318 199.849 145.486 199.835 145.654H194.291V145.752C194.333 147.11 195.187 148.062 196.545 148.062C197.553 148.062 198.337 147.53 198.575 146.606H199.737C199.457 148.034 198.281 149.084 196.629 149.084ZM194.361 144.702H198.631C198.519 143.47 197.679 142.784 196.489 142.784C195.439 142.784 194.473 143.54 194.361 144.702ZM206.941 142.952V139.2H208.089V149H207.095L206.941 147.852C206.465 148.51 205.695 149.084 204.491 149.084C202.517 149.084 201.061 147.754 201.061 145.43C201.061 143.246 202.517 141.776 204.491 141.776C205.695 141.776 206.507 142.266 206.941 142.952ZM204.603 148.062C206.003 148.062 206.955 146.984 206.955 145.458C206.955 143.89 206.003 142.798 204.603 142.798C203.189 142.798 202.237 143.876 202.237 145.43C202.237 146.984 203.189 148.062 204.603 148.062Z" fill="#9A9A9A"/>
<defs>
<filter id="filter0_i_1_1841" x="24.6162" y="47.604" width="77.481" height="129.349" filterUnits="userSpaceOnUse" color-interpolation-filters="sRGB">
<feFlood flood-opacity="0" result="BackgroundImageFix"/>
<feBlend mode="normal" in="SourceGraphic" in2="BackgroundImageFix" result="shape"/>
<feColorMatrix in="SourceAlpha" type="matrix" values="0 0 0 0 0 0 0 0 0 0 0 0 0 0 0 0 0 0 127 0" result="hardAlpha"/>
<feOffset dy="3"/>
<feGaussianBlur stdDeviation="2"/>
<feComposite in2="hardAlpha" operator="arithmetic" k2="-1" k3="1"/>
<feColorMatrix type="matrix" values="0 0 0 0 1 0 0 0 0 1 0 0 0 0 1 0 0 0 0.45 0"/>
<feBlend mode="normal" in2="shape" result="effect1_innerShadow_1_1841"/>
</filter>
<filter id="filter1_di_1_1841" x="88.3643" y="21" width="145.978" height="39.9348" filterUnits="userSpaceOnUse" color-interpolation-filters="sRGB">
<feFlood flood-opacity="0" result="BackgroundImageFix"/>
<feColorMatrix in="SourceAlpha" type="matrix" values="0 0 0 0 0 0 0 0 0 0 0 0 0 0 0 0 0 0 127 0" result="hardAlpha"/>
<feOffset dx="-2"/>
<feGaussianBlur stdDeviation="2"/>
<feComposite in2="hardAlpha" operator="out"/>
<feColorMatrix type="matrix" values="0 0 0 0 1 0 0 0 0 1 0 0 0 0 1 0 0 0 0.13 0"/>
<feBlend mode="normal" in2="BackgroundImageFix" result="effect1_dropShadow_1_1841"/>
<feBlend mode="normal" in="SourceGraphic" in2="effect1_dropShadow_1_1841" result="shape"/>
<feColorMatrix in="SourceAlpha" type="matrix" values="0 0 0 0 0 0 0 0 0 0 0 0 0 0 0 0 0 0 127 0" result="hardAlpha"/>
<feOffset dy="3"/>
<feGaussianBlur stdDeviation="2"/>
<feComposite in2="hardAlpha" operator="arithmetic" k2="-1" k3="1"/>
<feColorMatrix type="matrix" values="0 0 0 0 1 0 0 0 0 1 0 0 0 0 1 0 0 0 0.25 0"/>
<feBlend mode="normal" in2="shape" result="effect2_innerShadow_1_1841"/>
</filter>
<filter id="filter2_di_1_1841" x="219.247" y="33.0645" width="101.262" height="117.114" filterUnits="userSpaceOnUse" color-interpolation-filters="sRGB">
<feFlood flood-opacity="0" result="BackgroundImageFix"/>
<feColorMatrix in="SourceAlpha" type="matrix" values="0 0 0 0 0 0 0 0 0 0 0 0 0 0 0 0 0 0 127 0" result="hardAlpha"/>
<feOffset dx="-2"/>
<feGaussianBlur stdDeviation="2"/>
<feComposite in2="hardAlpha" operator="out"/>
<feColorMatrix type="matrix" values="0 0 0 0 1 0 0 0 0 1 0 0 0 0 1 0 0 0 0.13 0"/>
<feBlend mode="normal" in2="BackgroundImageFix" result="effect1_dropShadow_1_1841"/>
<feBlend mode="normal" in="SourceGraphic" in2="effect1_dropShadow_1_1841" result="shape"/>
<feColorMatrix in="SourceAlpha" type="matrix" values="0 0 0 0 0 0 0 0 0 0 0 0 0 0 0 0 0 0 127 0" result="hardAlpha"/>
<feOffset dy="3"/>
<feGaussianBlur stdDeviation="2"/>
<feComposite in2="hardAlpha" operator="arithmetic" k2="-1" k3="1"/>
<feColorMatrix type="matrix" values="0 0 0 0 1 0 0 0 0 1 0 0 0 0 1 0 0 0 0.25 0"/>
<feBlend mode="normal" in2="shape" result="effect2_innerShadow_1_1841"/>
</filter>
</defs>
</svg>
