<svg width="46" height="46" viewBox="0 0 46 46" fill="none" xmlns="http://www.w3.org/2000/svg">
<rect width="46" height="46" rx="23" fill="#E89271"/>
<path fill-rule="evenodd" clip-rule="evenodd" d="M14.1755 18.2491C14.9871 17.2842 16.3786 16.8125 18.4164 16.8125H27.5831C29.6208 16.8125 31.0124 17.2842 31.824 18.2491C32.6277 19.2047 32.7042 20.4601 32.5754 21.6306L31.8875 28.9674C31.7866 29.9098 31.55 30.943 30.7085 31.7117C29.8733 32.4748 28.5793 32.8542 26.6664 32.8542H19.3331C17.4201 32.8542 16.1261 32.4748 15.2909 31.7117C14.4495 30.943 14.2129 29.9098 14.112 28.9674L14.111 28.9583L13.4241 21.6306C13.2953 20.4601 13.3717 19.2047 14.1755 18.2491ZM15.2277 19.1342C14.7953 19.6483 14.6736 20.4208 14.7914 21.4852L14.7927 21.4967L15.4796 28.8254C15.5713 29.6773 15.7612 30.279 16.2183 30.6966C16.6825 31.1206 17.561 31.4792 19.3331 31.4792H26.6664C28.4384 31.4792 29.317 31.1206 29.7811 30.6966C30.2383 30.279 30.4281 29.6773 30.5198 28.8254L31.208 21.4852C31.3258 20.4208 31.2041 19.6483 30.7717 19.1342C30.3458 18.6279 29.4594 18.1875 27.5831 18.1875H18.4164C16.54 18.1875 15.6536 18.6279 15.2277 19.1342Z" fill="white"/>
<path fill-rule="evenodd" clip-rule="evenodd" d="M20.0606 15.7128C20.0216 16.011 20.0205 16.35 20.0205 16.7666V17.4999C20.0205 17.8796 19.7127 18.1874 19.333 18.1874C18.9533 18.1874 18.6455 17.8796 18.6455 17.4999L18.6455 16.7428C18.6455 16.3545 18.6455 15.9305 18.6971 15.5348C18.7507 15.1247 18.8654 14.6894 19.1341 14.3006C19.6995 13.4826 20.7351 13.1458 22.2663 13.1458H23.733C25.2643 13.1458 26.2999 13.4826 26.8652 14.3006C27.134 14.6894 27.2487 15.1247 27.3022 15.5348C27.3539 15.9305 27.3539 16.3545 27.3538 16.7428L27.3538 17.4999C27.3538 17.8796 27.046 18.1874 26.6663 18.1874C26.2866 18.1874 25.9788 17.8796 25.9788 17.4999V16.7666C25.9788 16.35 25.9777 16.011 25.9388 15.7128C25.9007 15.4207 25.832 15.2241 25.7341 15.0824C25.5661 14.8393 25.1351 14.5208 23.733 14.5208H22.2663C20.8643 14.5208 20.4332 14.8393 20.2652 15.0824C20.1673 15.2241 20.0987 15.4207 20.0606 15.7128Z" fill="white"/>
<path fill-rule="evenodd" clip-rule="evenodd" d="M21.8543 23.6882C21.8535 23.7537 21.8535 23.8283 21.8535 23.9167V24.8608C21.8535 25.1189 21.8558 25.3087 21.8782 25.4698C21.8997 25.6246 21.934 25.7 21.963 25.7409C21.9953 25.7865 22.1565 25.9792 22.9994 25.9792C23.846 25.9792 24.0053 25.7847 24.037 25.7395C24.0661 25.6978 24.1003 25.6213 24.1215 25.4646C24.1435 25.3017 24.1452 25.111 24.1452 24.8517V23.9167C24.1452 23.8283 24.1452 23.7537 24.1445 23.6882C24.079 23.6875 24.0044 23.6875 23.916 23.6875H22.0827C21.9943 23.6875 21.9197 23.6875 21.8543 23.6882ZM22.0526 22.3125C22.0626 22.3125 22.0727 22.3125 22.0827 22.3125H23.916C23.9261 22.3125 23.9361 22.3125 23.9461 22.3125C24.1488 22.3125 24.3543 22.3124 24.5219 22.331C24.6928 22.35 24.9766 22.4008 25.2042 22.6285C25.4319 22.8561 25.4827 23.1399 25.5017 23.3108C25.5203 23.4784 25.5202 23.6839 25.5202 23.8866C25.5202 23.8966 25.5202 23.9066 25.5202 23.9167V24.862C25.5202 25.1 25.5202 25.3817 25.484 25.649C25.4465 25.9263 25.3644 26.241 25.1632 26.5283C24.7343 27.1407 23.9769 27.3542 22.9994 27.3542C22.0272 27.3542 21.2717 27.1435 20.8412 26.536C20.6387 26.2504 20.5549 25.9367 20.5163 25.6593C20.4786 25.3881 20.4785 25.1024 20.4785 24.8608V23.9167C20.4785 23.9066 20.4785 23.8966 20.4785 23.8866C20.4785 23.6839 20.4784 23.4784 20.4971 23.3108C20.516 23.1399 20.5668 22.8561 20.7945 22.6285C21.0221 22.4008 21.306 22.35 21.4768 22.331C21.6444 22.3124 21.8499 22.3125 22.0526 22.3125Z" fill="white"/>
<path fill-rule="evenodd" clip-rule="evenodd" d="M32.4016 21.6789C32.6249 21.986 32.557 22.416 32.2499 22.6393C30.0351 24.2501 27.5047 25.2081 24.919 25.5337C24.5423 25.5812 24.1984 25.3143 24.151 24.9375C24.1035 24.5608 24.3705 24.217 24.7472 24.1695C27.1114 23.8718 29.421 22.9965 31.4412 21.5273C31.7483 21.304 32.1783 21.3719 32.4016 21.6789Z" fill="white"/>
<path fill-rule="evenodd" clip-rule="evenodd" d="M13.8341 21.9423C14.0486 21.629 14.4764 21.5488 14.7897 21.7633C16.7596 23.1115 18.9809 23.9241 21.2429 24.1774C21.6203 24.2197 21.8919 24.5598 21.8497 24.9371C21.8074 25.3145 21.4673 25.5861 21.0899 25.5439C18.6037 25.2655 16.1683 24.3731 14.0131 22.898C13.6998 22.6835 13.6196 22.2557 13.8341 21.9423Z" fill="white"/>
</svg>
