<svg width="22" height="22" viewBox="0 0 22 22" fill="none" xmlns="http://www.w3.org/2000/svg">
<path fill-rule="evenodd" clip-rule="evenodd" d="M2.17547 6.24913C2.98709 5.28419 4.37861 4.8125 6.41639 4.8125H15.5831C17.6208 4.8125 19.0124 5.28419 19.824 6.24913C20.6277 7.20469 20.7042 8.46006 20.5754 9.63061L19.8875 16.9674C19.7866 17.9098 19.55 18.943 18.7085 19.7117C17.8733 20.4748 16.5793 20.8542 14.6664 20.8542H7.33306C5.42011 20.8542 4.12613 20.4748 3.29091 19.7117C2.44947 18.943 2.21294 17.9098 2.11197 16.9674L2.111 16.9583L1.42409 9.63063C1.29527 8.46008 1.37172 7.2047 2.17547 6.24913ZM3.22773 7.13421C2.79531 7.6483 2.6736 8.42076 2.79139 9.48522L2.79265 9.49665L3.47962 16.8254C3.57133 17.6773 3.76119 18.279 4.21833 18.6966C4.68249 19.1206 5.561 19.4792 7.33306 19.4792H14.6664C16.4384 19.4792 17.317 19.1206 17.7811 18.6966C18.2383 18.279 18.4281 17.6773 18.5198 16.8254L19.208 9.48521C19.3258 8.42075 19.2041 7.6483 18.7717 7.13421C18.3458 6.62789 17.4594 6.1875 15.5831 6.1875H6.41639C4.54001 6.1875 3.6536 6.62789 3.22773 7.13421Z" fill="#F1F1F1"/>
<path fill-rule="evenodd" clip-rule="evenodd" d="M8.06056 3.71276C8.02161 4.01104 8.02051 4.35 8.02051 4.76658V5.49992C8.02051 5.87961 7.71271 6.18742 7.33301 6.18742C6.95331 6.18742 6.64551 5.87961 6.64551 5.49992L6.64551 4.74276C6.64549 4.35453 6.64546 3.93048 6.69713 3.53476C6.75066 3.12473 6.86537 2.68942 7.13411 2.30059C7.69945 1.48262 8.73506 1.14575 10.2663 1.14575H11.733C13.2643 1.14575 14.2999 1.48262 14.8652 2.30059C15.134 2.68942 15.2487 3.12473 15.3022 3.53476C15.3539 3.93048 15.3539 4.35453 15.3538 4.74277L15.3538 5.49992C15.3538 5.87961 15.046 6.18742 14.6663 6.18742C14.2866 6.18742 13.9788 5.87961 13.9788 5.49992V4.76658C13.9788 4.35 13.9777 4.01104 13.9388 3.71276C13.9007 3.42068 13.832 3.22406 13.7341 3.08237C13.5661 2.8393 13.1351 2.52075 11.733 2.52075H10.2663C8.86429 2.52075 8.43324 2.8393 8.26524 3.08237C8.16731 3.22406 8.09869 3.42068 8.06056 3.71276Z" fill="#F1F1F1"/>
<path fill-rule="evenodd" clip-rule="evenodd" d="M9.85425 11.6882C9.85354 11.7537 9.85352 11.8283 9.85352 11.9167V12.8608C9.85352 13.1189 9.85578 13.3087 9.87819 13.4698C9.89974 13.6246 9.93396 13.7 9.96297 13.7409C9.99532 13.7865 10.1565 13.9792 10.9994 13.9792C11.846 13.9792 12.0053 13.7847 12.037 13.7395C12.0661 13.6978 12.1003 13.6213 12.1215 13.4646C12.1435 13.3017 12.1452 13.111 12.1452 12.8517V11.9167C12.1452 11.8283 12.1452 11.7537 12.1445 11.6882C12.079 11.6875 12.0044 11.6875 11.916 11.6875H10.0827C9.99428 11.6875 9.91969 11.6875 9.85425 11.6882ZM10.0526 10.3125C10.0626 10.3125 10.0727 10.3125 10.0827 10.3125H11.916C11.9261 10.3125 11.9361 10.3125 11.9461 10.3125C12.1488 10.3125 12.3543 10.3124 12.5219 10.331C12.6928 10.35 12.9766 10.4008 13.2042 10.6285C13.4319 10.8561 13.4827 11.1399 13.5017 11.3108C13.5203 11.4784 13.5202 11.6839 13.5202 11.8866C13.5202 11.8966 13.5202 11.9066 13.5202 11.9167V12.862C13.5202 13.1 13.5202 13.3817 13.484 13.649C13.4465 13.9263 13.3644 14.241 13.1632 14.5283C12.7343 15.1407 11.9769 15.3542 10.9994 15.3542C10.0272 15.3542 9.27173 15.1435 8.84117 14.536C8.63871 14.2504 8.55492 13.9367 8.51631 13.6593C8.47857 13.3881 8.47852 13.1024 8.47852 12.8608V11.9167C8.47852 11.9066 8.47852 11.8966 8.47852 11.8866C8.47847 11.6839 8.47843 11.4784 8.49705 11.3108C8.51604 11.1399 8.5668 10.8561 8.79447 10.6285C9.02214 10.4008 9.30596 10.35 9.47682 10.331C9.64445 10.3124 9.84987 10.3125 10.0526 10.3125Z" fill="#F1F1F1"/>
<path fill-rule="evenodd" clip-rule="evenodd" d="M20.4016 9.67893C20.6249 9.98601 20.557 10.416 20.2499 10.6393C18.0351 12.2501 15.5047 13.2081 12.919 13.5337C12.5423 13.5812 12.1984 13.3143 12.151 12.9375C12.1035 12.5608 12.3705 12.217 12.7472 12.1695C15.1114 11.8718 17.421 10.9965 19.4412 9.52729C19.7483 9.30397 20.1783 9.37186 20.4016 9.67893Z" fill="#F1F1F1"/>
<path fill-rule="evenodd" clip-rule="evenodd" d="M1.8341 9.94232C2.04855 9.62899 2.47641 9.54884 2.78974 9.76329C4.75956 11.1115 6.98087 11.9241 9.24293 12.1774C9.62027 12.2197 9.89191 12.5598 9.84966 12.9371C9.80741 13.3145 9.46727 13.5861 9.08993 13.5439C6.60367 13.2655 4.1683 12.3731 2.01312 10.898C1.69979 10.6835 1.61964 10.2557 1.8341 9.94232Z" fill="#F1F1F1"/>
</svg>
