<svg width="22" height="22" viewBox="0 0 22 22" fill="none" xmlns="http://www.w3.org/2000/svg">
<path fill-rule="evenodd" clip-rule="evenodd" d="M11 8.9375C9.86091 8.9375 8.9375 9.86091 8.9375 11C8.9375 12.1391 9.86091 13.0625 11 13.0625C12.1391 13.0625 13.0625 12.1391 13.0625 11C13.0625 9.86091 12.1391 8.9375 11 8.9375ZM7.5625 11C7.5625 9.10152 9.10152 7.5625 11 7.5625C12.8985 7.5625 14.4375 9.10152 14.4375 11C14.4375 12.8985 12.8985 14.4375 11 14.4375C9.10152 14.4375 7.5625 12.8985 7.5625 11Z" fill="#F1F1F1"/>
<path fill-rule="evenodd" clip-rule="evenodd" d="M8.80286 3.45611C8.55749 3.04733 8.04076 2.92016 7.65702 3.14846L7.64702 3.15441L6.06114 4.06183C5.55938 4.34855 5.38628 4.9986 5.67329 5.49535L5.07801 5.83929L5.67282 5.49453C6.16329 6.34073 6.29515 7.2682 5.85701 8.02849C5.41894 8.78868 4.55073 9.13929 3.57467 9.13929C2.99422 9.13929 2.52051 9.61746 2.52051 10.1935V11.8068C2.52051 12.3828 2.99422 12.861 3.57467 12.861C4.55073 12.861 5.41894 13.2116 5.85701 13.9717C6.29509 14.7319 6.16333 15.6593 5.67301 16.5054C5.38639 17.0021 5.55918 17.6516 6.06077 17.9382L7.65707 18.8517C8.0408 19.08 8.55747 18.9529 8.80284 18.5442L8.90136 18.374C9.39166 17.5281 10.1307 16.9516 11.0077 16.9516C11.8854 16.9516 12.6221 17.5285 13.108 18.3754C13.1082 18.3758 13.1084 18.3762 13.1086 18.3765L13.2057 18.5441C13.451 18.9529 13.9678 19.0801 14.3515 18.8518L14.3615 18.8458L15.9474 17.9384C16.4478 17.6525 16.6236 17.0114 16.3345 16.5036C15.845 15.658 15.7137 14.7314 16.1515 13.9717C16.5896 13.2116 17.4578 12.861 18.4338 12.861C19.0143 12.861 19.488 12.3828 19.488 11.8068V10.1935C19.488 9.613 19.0098 9.13929 18.4338 9.13929C17.4578 9.13929 16.5896 8.78868 16.1515 8.02849C15.7135 7.26835 15.8452 6.34109 16.3354 5.49502C16.6222 4.99831 16.4494 4.3487 15.9477 4.06204L14.3514 3.14855C13.9677 2.92025 13.451 3.04733 13.2057 3.45612L13.1072 3.62625C12.6169 4.47216 11.8778 5.04866 11.0008 5.04866C10.1233 5.04866 9.38654 4.47184 8.9007 3.62511C8.90043 3.62464 8.90016 3.62417 8.89989 3.6237L8.80286 3.45611ZM6.95945 1.96354C8.02226 1.33529 9.37037 1.72073 9.98635 2.75611L9.99053 2.76314L10.0913 2.93733L10.0928 2.93988C10.432 3.53154 10.7857 3.67366 11.0008 3.67366C11.2169 3.67366 11.5734 3.53034 11.9172 2.93732C11.9171 2.93742 11.9173 2.93723 11.9172 2.93732L12.0221 2.75608C12.6381 1.7207 13.9863 1.33529 15.0491 1.96355L16.6299 2.8682C17.7965 3.53482 18.1921 5.02998 17.5258 6.18323L17.5253 6.18405C17.1816 6.77701 17.2356 7.15579 17.3428 7.34196C17.4502 7.52823 17.7507 7.76429 18.4338 7.76429C19.7645 7.76429 20.863 8.84891 20.863 10.1935V11.8068C20.863 13.1375 19.7784 14.236 18.4338 14.236C17.7507 14.236 17.4502 14.472 17.3428 14.6583C17.2356 14.8444 17.1816 15.2232 17.5253 15.8162L17.5274 15.8199C18.1904 16.98 17.7974 18.4646 16.6303 19.1318C16.6302 19.1319 16.6304 19.1318 16.6303 19.1318L15.049 20.0367C13.9862 20.6649 12.6381 20.2795 12.0222 19.2441L12.018 19.2371L11.9172 19.0629L11.9157 19.0604C11.5766 18.4687 11.2228 18.3266 11.0077 18.3266C10.7916 18.3266 10.4351 18.4699 10.0913 19.0629C10.0913 19.063 10.0914 19.0628 10.0913 19.0629L9.98639 19.2442C9.37042 20.2795 8.02233 20.6649 6.95953 20.0367L5.37858 19.132C5.37846 19.132 5.3787 19.1321 5.37858 19.132C4.21229 18.4653 3.81647 16.9701 4.48273 15.817L4.4832 15.8162C4.82689 15.2232 4.77295 14.8444 4.66567 14.6583C4.55833 14.472 4.25778 14.236 3.57467 14.236C2.23013 14.236 1.14551 13.1375 1.14551 11.8068V10.1935C1.14551 8.86278 2.23013 7.76429 3.57467 7.76429C4.25778 7.76429 4.55833 7.52823 4.66567 7.34196C4.77295 7.15579 4.82689 6.77701 4.4832 6.18405L4.48273 6.18323C3.81647 5.0301 4.21192 3.53514 5.37821 2.86842L6.95945 1.96354Z" fill="#F1F1F1"/>
</svg>
