<svg width="22" height="22" viewBox="0 0 22 22" fill="none" xmlns="http://www.w3.org/2000/svg">
<path fill-rule="evenodd" clip-rule="evenodd" d="M10.8077 3.15796C10.4667 3.15796 10.1638 3.21758 9.97034 3.30418L9.96841 3.30505L4.55856 5.70738C3.84846 6.02066 3.7998 6.3041 3.7998 6.33421C3.7998 6.36432 3.84846 6.64776 4.55856 6.96104L4.56008 6.96171L9.97035 9.36423C10.1638 9.45084 10.4667 9.51046 10.8077 9.51046C11.1487 9.51046 11.4517 9.45084 11.6451 9.36424L11.647 9.36338L17.0554 6.96171L17.0569 6.96104C17.767 6.64776 17.8156 6.36432 17.8156 6.33421C17.8156 6.3041 17.767 6.02066 17.0569 5.70738L11.647 3.30504L11.6451 3.30418C11.4517 3.21758 11.1487 3.15796 10.8077 3.15796ZM12.206 2.04878C11.7854 1.86071 11.2776 1.78296 10.8077 1.78296C10.3378 1.78296 9.83002 1.86071 9.40946 2.04878C9.40911 2.04893 9.40877 2.04909 9.40843 2.04924L4.00355 4.44937C4.00331 4.44948 4.00379 4.44926 4.00355 4.44937C3.15563 4.82363 2.4248 5.45249 2.4248 6.33421C2.4248 7.2159 3.15485 7.84442 4.00273 8.21869C4.00246 8.21857 4.00301 8.21881 4.00273 8.21869L9.40843 10.6192C9.40882 10.6194 9.40921 10.6195 9.4096 10.6197C9.83013 10.8077 10.3379 10.8855 10.8077 10.8855C11.2776 10.8855 11.7854 10.8077 12.2059 10.6197C12.2063 10.6195 12.2066 10.6193 12.207 10.6192L17.6119 8.21905C17.6117 8.21915 17.6121 8.21894 17.6119 8.21905C18.4598 7.84479 19.1906 7.21593 19.1906 6.33421C19.1906 5.45246 18.4605 4.8239 17.6125 4.44965C17.6123 4.44956 17.6127 4.44974 17.6125 4.44965L12.207 2.04924C12.2067 2.04909 12.2063 2.04893 12.206 2.04878Z" fill="#F1F1F1"/>
<path fill-rule="evenodd" clip-rule="evenodd" d="M2.75 9.396C3.1297 9.396 3.4375 9.7038 3.4375 10.0835C3.4375 10.3066 3.52576 10.5931 3.70324 10.8658C3.88071 11.1386 4.10673 11.3352 4.31104 11.4254L4.31273 11.4262L10.5356 14.1939C10.5354 14.1938 10.5358 14.194 10.5356 14.1939C10.8367 14.3269 11.174 14.3249 11.4599 14.1959L11.4631 14.1945L17.6873 11.4262L17.689 11.4254C17.8933 11.3352 18.1193 11.1386 18.2968 10.8658C18.4742 10.5931 18.5625 10.3066 18.5625 10.0835C18.5625 9.7038 18.8703 9.396 19.25 9.396C19.6297 9.396 19.9375 9.7038 19.9375 10.0835C19.9375 10.6304 19.737 11.1735 19.4493 11.6157C19.1617 12.0577 18.7463 12.4614 18.2451 12.6829C18.2449 12.683 18.2454 12.6828 18.2451 12.6829L12.0251 15.4494C12.0245 15.4497 12.0239 15.4499 12.0233 15.4502C11.3748 15.742 10.6308 15.7395 9.9794 15.4514L3.75563 12.6832C3.75532 12.6831 3.755 12.683 3.75469 12.6828C3.25359 12.4613 2.83827 12.0577 2.55072 11.6157C2.26299 11.1735 2.0625 10.6304 2.0625 10.0835C2.0625 9.7038 2.3703 9.396 2.75 9.396Z" fill="#F1F1F1"/>
<path fill-rule="evenodd" clip-rule="evenodd" d="M2.75 13.9792C3.1297 13.9792 3.4375 14.2871 3.4375 14.6667C3.4375 15.245 3.77937 15.7707 4.31341 16.0097C4.31324 16.0096 4.31358 16.0098 4.31341 16.0097L10.5356 18.7772C10.5354 18.7771 10.5358 18.7773 10.5356 18.7772C10.8367 18.9101 11.174 18.9081 11.4599 18.7792L11.4631 18.7777L17.6861 16.0099C17.6859 16.01 17.6863 16.0099 17.6861 16.0099C18.2201 15.7709 18.5625 15.2449 18.5625 14.6667C18.5625 14.2871 18.8703 13.9792 19.25 13.9792C19.6297 13.9792 19.9375 14.2871 19.9375 14.6667C19.9375 15.7933 19.2713 16.8074 18.2473 17.2652L18.2461 17.2657L12.0251 20.0326C12.0245 20.0329 12.0239 20.0332 12.0233 20.0335C11.3748 20.3253 10.6308 20.3228 9.9794 20.0347L3.75274 17.2652C2.72874 16.8074 2.0625 15.7933 2.0625 14.6667C2.0625 14.2871 2.3703 13.9792 2.75 13.9792Z" fill="#F1F1F1"/>
</svg>
