<svg width="46" height="46" viewBox="0 0 46 46" fill="none" xmlns="http://www.w3.org/2000/svg">
<rect width="46" height="46" rx="23" fill="#70A1E6"/>
<path fill-rule="evenodd" clip-rule="evenodd" d="M23.0002 14.5208C18.3199 14.5208 14.521 18.3196 14.521 22.9999C14.521 27.6802 18.3199 31.4791 23.0002 31.4791C27.6805 31.4791 31.4793 27.6802 31.4793 22.9999C31.4793 18.3196 27.6805 14.5208 23.0002 14.5208ZM13.146 22.9999C13.146 17.5602 17.5605 13.1458 23.0002 13.1458C28.4399 13.1458 32.8543 17.5602 32.8543 22.9999C32.8543 28.4396 28.4399 32.8541 23.0002 32.8541C17.5605 32.8541 13.146 28.4396 13.146 22.9999Z" fill="#F1F1F1"/>
<path fill-rule="evenodd" clip-rule="evenodd" d="M22.6611 18.1965C23.0408 18.1965 23.3486 18.5043 23.3486 18.884V22.6424C23.3486 22.7831 23.4024 22.9871 23.5219 23.1967C23.6414 23.4063 23.7896 23.5562 23.91 23.6276L23.9118 23.6287L23.9118 23.6287L26.7534 25.3245C27.0795 25.5191 27.1861 25.9411 26.9915 26.2672C26.7969 26.5932 26.3749 26.6998 26.0488 26.5052L23.209 24.8105C23.2087 24.8103 23.2083 24.8101 23.208 24.8099C22.8339 24.5879 22.5332 24.2386 22.3275 23.8778C22.1216 23.5168 21.9736 23.0791 21.9736 22.6424V18.884C21.9736 18.5043 22.2814 18.1965 22.6611 18.1965Z" fill="#F1F1F1"/>
</svg>
