<svg width="22" height="22" viewBox="0 0 22 22" fill="none" xmlns="http://www.w3.org/2000/svg">
<path fill-rule="evenodd" clip-rule="evenodd" d="M16.4177 2.52075C15.4866 2.52075 14.7402 3.26711 14.7402 4.19825C14.7402 5.09468 15.4297 5.81715 16.3025 5.87376C16.3757 5.86726 16.4506 5.86726 16.5238 5.87375C17.3951 5.8172 18.0876 5.09567 18.0952 4.1958C18.0939 3.27321 17.3463 2.52075 16.4177 2.52075ZM13.3652 4.19825C13.3652 2.50773 14.7272 1.14575 16.4177 1.14575C18.11 1.14575 19.4702 2.51863 19.4702 4.19825V4.20316H19.4702C19.4584 5.85218 18.1604 7.19106 16.5251 7.2503C16.4877 7.25166 16.4503 7.24996 16.4131 7.24522C16.376 7.24996 16.3386 7.25166 16.3012 7.2503C14.6668 7.19109 13.3652 5.85195 13.3652 4.19825Z" fill="#F1F1F1"/>
<path fill-rule="evenodd" clip-rule="evenodd" d="M15.4098 8.11356C16.8034 7.86942 18.3925 8.10218 19.5477 8.86873L19.549 8.86955C20.3386 9.39595 20.8245 10.1587 20.8245 11.0091C20.8245 11.8594 20.3386 12.6222 19.549 13.1486C18.4023 13.9161 16.8322 14.148 15.4421 13.9146C15.0677 13.8517 14.8151 13.4972 14.8779 13.1228C14.9408 12.7483 15.2953 12.4957 15.6698 12.5586C16.7908 12.7468 17.9884 12.5389 18.785 12.0054L18.7862 12.0045C19.2891 11.6693 19.4495 11.2954 19.4495 11.0091C19.4495 10.7229 19.2893 10.3492 18.7869 10.014C17.9804 9.47922 16.7648 9.27212 15.6471 9.46793C15.2731 9.53345 14.9168 9.28337 14.8512 8.90937C14.7857 8.53537 15.0358 8.17907 15.4098 8.11356Z" fill="#F1F1F1"/>
<path fill-rule="evenodd" clip-rule="evenodd" d="M2.50293 4.19825C2.50293 2.51863 3.86317 1.14575 5.55543 1.14575C7.24596 1.14575 8.60793 2.50773 8.60793 4.19825C8.60793 5.85195 7.3064 7.19109 5.67199 7.2503C5.63457 7.25166 5.59712 7.24996 5.56001 7.24522C5.5229 7.24996 5.48545 7.25166 5.44804 7.2503C3.81277 7.19106 2.51473 5.85218 2.50295 4.20316L2.50293 4.19825ZM3.87793 4.19581C3.88561 5.09567 4.57806 5.8172 5.44932 5.87375C5.52253 5.86726 5.5975 5.86726 5.67071 5.87376C6.54347 5.81715 7.23293 5.09468 7.23293 4.19825C7.23293 3.26711 6.48657 2.52075 5.55543 2.52075C4.62685 2.52075 3.87925 3.27321 3.87793 4.19581Z" fill="#F1F1F1"/>
<path fill-rule="evenodd" clip-rule="evenodd" d="M3.18605 10.014C3.99249 9.47922 5.20809 9.27212 6.32585 9.46793C6.69985 9.53345 7.05615 9.28337 7.12166 8.90937C7.18718 8.53537 6.93711 8.17907 6.56311 8.11356C5.16949 7.86942 3.58042 8.10218 2.42519 8.86873L2.42519 8.86872L2.42396 8.86955C1.63435 9.39595 1.14844 10.1587 1.14844 11.0091C1.14844 11.8592 1.6341 12.6218 2.42333 13.1482C3.57005 13.916 5.14044 14.148 6.5308 13.9146C6.90526 13.8517 7.15785 13.4972 7.09499 13.1228C7.03212 12.7483 6.67761 12.4957 6.30315 12.5586C5.1821 12.7468 3.98447 12.5389 3.18791 12.0054L3.18667 12.0045C2.68377 11.6693 2.52344 11.2954 2.52344 11.0091C2.52344 10.7229 2.68364 10.3492 3.18605 10.014Z" fill="#F1F1F1"/>
<path fill-rule="evenodd" clip-rule="evenodd" d="M10.9177 9.36816C9.9866 9.36816 9.24023 10.1145 9.24023 11.0457C9.24023 11.9421 9.92969 12.6646 10.8025 12.7212C10.8767 12.7146 10.9527 12.7147 11.0269 12.7214C11.8911 12.6719 12.5875 11.9479 12.5952 11.0432C12.5939 10.1206 11.8463 9.36816 10.9177 9.36816ZM7.86523 11.0457C7.86523 9.35514 9.2272 7.99316 10.9177 7.99316C12.61 7.99316 13.9702 9.36604 13.9702 11.0457V11.0506H13.9702C13.9585 12.6952 12.6637 14.0502 11.0202 14.0979C10.9844 14.0989 10.9486 14.0972 10.9131 14.0926C10.876 14.0974 10.8386 14.0991 10.8012 14.0977C9.16676 14.0385 7.86523 12.6994 7.86523 11.0457Z" fill="#F1F1F1"/>
<path fill-rule="evenodd" clip-rule="evenodd" d="M11.0036 14.8818C12.0747 14.8818 13.1828 15.1486 14.049 15.7261C14.8386 16.2525 15.3245 17.0152 15.3245 17.8656C15.3245 18.7158 14.8387 19.4785 14.0493 20.0049C13.1794 20.5865 12.0717 20.8562 11.0002 20.8562C9.92858 20.8562 8.82088 20.5865 7.951 20.0049C7.16157 19.4785 6.67578 18.7158 6.67578 17.8656C6.67578 17.0152 7.1617 16.2525 7.9513 15.7261L7.95295 15.7249L7.95295 15.725C8.82285 15.1486 9.93227 14.8818 11.0036 14.8818ZM8.7132 16.8707C8.21094 17.2058 8.05078 17.5794 8.05078 17.8656C8.05078 18.1519 8.21112 18.5258 8.71401 18.861L8.71484 18.8616C9.31154 19.2606 10.1378 19.4812 11.0002 19.4812C11.8625 19.4812 12.6888 19.2606 13.2855 18.8616L13.2863 18.861C13.7892 18.5258 13.9495 18.1519 13.9495 17.8656C13.9495 17.5793 13.7892 17.2054 13.2863 16.8701C12.695 16.4759 11.8689 16.2568 11.0036 16.2568C10.1389 16.2568 9.30991 16.4757 8.7132 16.8707Z" fill="#F1F1F1"/>
</svg>
